<?xml version="1.0" encoding="utf-8"?>
<!-- Generator: Adobe Illustrator 16.0.0, SVG Export Plug-In . SVG Version: 6.00 Build 0)  -->
<!DOCTYPE svg PUBLIC "-//W3C//DTD SVG 1.1//EN" "http://www.w3.org/Graphics/SVG/1.1/DTD/svg11.dtd">
<svg version="1.1" id="Layer_1" xmlns="http://www.w3.org/2000/svg" xmlns:xlink="http://www.w3.org/1999/xlink" x="0px" y="0px"
	 width="53.687px" height="60px" viewBox="0 0 53.687 60" enable-background="new 0 0 53.687 60" xml:space="preserve">
<path fill="#FF8300" d="M35.621,32.631c-0.924-0.56-11.72-7.095-11.72-7.095c-0.601-0.362-1.022-0.937-1.19-1.62
	c-0.05-0.207-0.078-0.42-0.078-0.63c0-0.476,0.129-0.941,0.381-1.355c0.364-0.604,0.938-1.027,1.621-1.194
	c0.681-0.167,1.389-0.06,1.99,0.303l3.863,2.338c0.995,0.603,2.29,0.285,2.891-0.707c0.208-0.343,0.306-0.72,0.306-1.092
	c0-0.712-0.363-1.405-1.017-1.804l-10-6.052c-0.515-0.311-1.14-0.385-1.715-0.208c0,0-12.706,3.948-16.743,5.206v-2.761
	C6.034,14.915,22.352,5.593,24.188,4.542c1.875,1.118,23.461,13.986,25.286,15.074v13.015H35.621z M49.474,46.317v3.674
	c-2.566,0.733-18.9,5.399-19.971,5.705c-1.136-0.357-19.396-6.126-19.396-6.126c-0.204-0.065-0.418-0.098-0.633-0.098H4.21V36.841
	h24.735c1.454,0,2.635,1.183,2.635,2.633s-1.181,2.632-2.632,2.632h-5.79c-1.164,0-2.107,0.942-2.107,2.106
	c0,1.16,0.943,2.105,2.107,2.105H49.474z M51.58,36.841c1.161,0,2.106-0.941,2.106-2.104V18.42c0-0.741-0.392-1.428-1.028-1.807
	L25.289,0.295c-0.654-0.387-1.466-0.395-2.124-0.02L1.059,12.907C0.405,13.284,0,13.979,0,14.735v12.105h6.315v5.79H2.107
	C0.942,32.631,0,33.574,0,34.737v16.84c0,0.559,0.223,1.095,0.615,1.491c0.396,0.393,0.932,0.614,1.492,0.614h7.042
	c0.6,0.19,19.691,6.22,19.691,6.22c0.392,0.124,0.814,0.13,1.211,0.018l22.105-6.316c0.905-0.258,1.529-1.086,1.529-2.026v-7.365
	c0-0.56-0.223-1.096-0.618-1.489c-0.395-0.395-0.931-0.617-1.488-0.617h-4.21v-5.265H51.58z"/>
</svg>
