<?xml version="1.0" encoding="utf-8"?>
<!-- Generator: Adobe Illustrator 16.0.0, SVG Export Plug-In . SVG Version: 6.00 Build 0)  -->
<!DOCTYPE svg PUBLIC "-//W3C//DTD SVG 1.1//EN" "http://www.w3.org/Graphics/SVG/1.1/DTD/svg11.dtd">
<svg version="1.1" id="Layer_1" xmlns="http://www.w3.org/2000/svg" xmlns:xlink="http://www.w3.org/1999/xlink" x="0px" y="0px"
	 width="369.612px" height="204.861px" viewBox="0 0 369.612 204.861" enable-background="new 0 0 369.612 204.861"
	 xml:space="preserve">
<rect x="0.188" y="0.188" fill="#FF8300" stroke="#000000" stroke-width="0.3756" width="369.236" height="204.485"/>
<path fill="#FFFFFF" d="M99.674,91.858c-2.045-1.237-25.932-15.697-25.932-15.697c-1.33-0.802-2.263-2.073-2.636-3.584
	c-0.109-0.46-0.171-0.931-0.171-1.396c0-1.053,0.285-2.082,0.843-2.998c0.804-1.334,2.077-2.271,3.587-2.64
	c1.507-0.373,3.072-0.134,4.402,0.67l8.55,5.174c2.199,1.334,5.066,0.631,6.394-1.565c0.458-0.758,0.678-1.592,0.678-2.415
	c0-1.577-0.804-3.11-2.251-3.991L71.014,50.025c-1.14-0.688-2.521-0.851-3.796-0.461c0,0-28.112,8.736-37.043,11.518v-6.109
	c4.037-2.311,40.14-22.937,44.201-25.261c4.148,2.473,51.903,30.944,55.945,33.35v28.796H99.674z M130.322,122.139v8.129
	c-5.681,1.623-41.817,11.945-44.185,12.622c-2.515-0.791-42.915-13.551-42.915-13.551c-0.451-0.145-0.927-0.217-1.404-0.217H30.175
	v-27.95h54.728c3.214,0,5.828,2.617,5.828,5.825s-2.614,5.826-5.822,5.826H72.097c-2.574,0-4.662,2.082-4.662,4.656
	c0,2.567,2.088,4.659,4.662,4.659H130.322z M134.981,101.172c2.57,0,4.659-2.084,4.659-4.654V60.418c0-1.641-0.867-3.16-2.276-3.998
	L76.812,20.316c-1.446-0.855-3.243-0.873-4.698-0.043L23.203,48.221c-1.446,0.832-2.343,2.372-2.343,4.045V79.05h13.974v12.809
	h-9.312c-2.578,0-4.661,2.088-4.661,4.659v37.261c0,1.234,0.491,2.419,1.361,3.3c0.875,0.87,2.06,1.355,3.3,1.355h15.583
	c1.324,0.424,43.564,13.762,43.564,13.762c0.868,0.278,1.803,0.292,2.684,0.038l48.906-13.974c2.001-0.571,3.382-2.4,3.382-4.481
	v-16.299c0-1.237-0.491-2.423-1.366-3.293c-0.873-0.874-2.059-1.363-3.293-1.363h-9.314v-11.651H134.981z"/>
<path fill="#FFFFFF" d="M187.174,63.5c0-4.219,5.693-5.949,9.807-5.949c5.248,0,9.115,1.965,12.066,5.713l10.268-8.386
	c-5-6.179-13.752-8.49-21.959-8.49c-12.444,0-24.774,5.58-24.774,18.027c0,21.271,34.559,12.197,34.559,23.702
	c0,4.406-7.07,4.604-11.592,4.604h-6.799V82.314h-14.177v21.188H195.6v-0.026c15.574-0.135,25.656-3.434,25.656-16.409
	C221.256,65.325,187.174,73.463,187.174,63.5"/>
<path fill="#FFFFFF" d="M256.119,46.389c-0.279,0-25.379,0.631-26.619,19.834l-0.055,0.827h13.854l0.385-1.046
	c0.742-2.174,2.68-7.945,11.967-7.945c4.229,0,7.641,1.326,10.266,3.97c3.113,3.16,4.797,8.058,4.686,13.789
	c0,5.125-1.475,17.041-15.271,17.205c-3.547,0.066-6.516-1.06-8.619-3.262c-2.068-2.19-2.791-4.841-2.846-6.863
	c1.432,0.016,11.238,0.143,11.238,0.143V72.577h-26.51v0.784c0,20.339,9.143,30.869,27.186,31.359
	c8.764,0.29,15.889-2.161,21.102-7.33c7.07-6.979,8.775-17.118,8.666-21.985C285.254,58.441,272.85,46.245,256.119,46.389"/>
<path fill="#FFFFFF" d="M348.256,42.253h-15.99c0,0-2.914,4.038-3.438,4.735c-2.699-0.599-4.01-0.599-7.666-0.599
	c-17.32-0.428-27.607,6.371-28.23,18.66l-0.051,0.858l15.049-0.173l0.092-0.701c0.562-5.865,2.846-9.056,13.141-9.056
	c2.793,0,9.301,0.728,9.506,7.477c0.133,4.685-6.055,5.782-13.549,6.626l-1.674,0.156c-7.848,0.604-22.514,1.778-22.514,18.145
	c0,3.379,2.072,8.608,6.596,12.149c3.861,3.006,10.98,5.971,23.035,2.959l0.734-0.164l-1.633-10.548l-0.83,0.203
	c-5.594,1.182-9.453,0.915-11.535-0.76c-1.277-1.025-1.887-2.604-1.887-4.797c0-5.967,5.125-6.835,12.955-7.446
	c4.119-0.328,7.986-0.7,10.301-2.537v26.062h15.09V61.518c0-3.812-1.426-6.981-3.928-9.386
	C342.363,51.314,348.256,42.253,348.256,42.253"/>
<polygon fill="#FFFFFF" points="215.227,110.493 221.381,110.493 221.381,120.913 233.342,120.913 233.342,110.493 239.498,110.493 
	239.498,138.434 233.342,138.434 233.342,126.36 221.381,126.36 221.381,138.434 215.227,138.434 "/>
<path fill="#FFFFFF" d="M260.367,133.224h5.529c1.934,0,4.104-0.828,4.104-3.277c0-2.643-2.947-3.076-4.971-3.076h-4.662V133.224z
	 M260.367,121.655h4.473c1.889,0,3.863-0.79,3.863-3.04c0-2.324-2.211-2.915-4.148-2.915h-4.188V121.655z M254.219,110.493h10.412
	c4.9,0,10.234,1.024,10.234,7.101c0,3.123-1.938,5.247-4.818,6.164v0.072c3.67,0.482,6.117,3.197,6.117,6.832
	c0,5.838-5.527,7.771-10.5,7.771h-11.445V110.493z"/>
<path fill="#FFFFFF" d="M287.416,118.615l-3.393,8.688h6.834L287.416,118.615z M285.041,110.493h5.096l12.166,27.94h-6.955
	l-2.4-5.916h-10.863l-2.326,5.916h-6.785L285.041,110.493z"/>
<polygon fill="#FFFFFF" points="301.152,110.493 309.531,110.493 321.404,129.92 321.49,129.92 321.49,110.493 327.648,110.493 
	327.648,138.434 319.592,138.434 307.402,118.547 307.314,118.547 307.314,138.434 301.152,138.434 "/>
<polygon fill="#FFFFFF" points="322.113,110.493 328.279,110.493 328.279,122.092 339.125,110.493 347.184,110.493 334.75,123.475 
	348.256,138.434 339.646,138.434 328.279,125.169 328.279,138.434 322.113,138.434 "/>
<path fill="#FFFFFF" d="M194.621,127.96c-0.025,0.66-0.221,2.364-1.639,3.822c-1.199,1.211-2.879,1.832-4.865,1.815
	c-7.671-0.082-8.507-6.538-8.507-9.308c-0.041-3.071,0.884-5.704,2.605-7.411c1.478-1.438,3.408-2.171,5.736-2.171
	c5.207,0,6.322,3.183,6.736,4.374c0,0,0.051,0.138,0.1,0.263h6.555c-0.662-9.502-13.492-9.79-13.617-9.79
	c-8.607-0.059-14.972,6.06-15.149,14.534c-0.032,2.466,0.863,7.545,4.46,11.01c2.658,2.561,6.307,3.792,10.849,3.647
	c9.23-0.239,13.93-5.51,13.932-15.685h-13.139v4.515c0.762-0.013,5.949-0.072,5.949-0.072L194.621,127.96z"/>
<g>
	<g>
		<path fill="#FFFFFF" d="M115.395,173.521c0-1.179,1.24-1.669,2.287-1.669c1.337,0,2.32,0.553,3.07,1.6l2.616-2.352
			c-1.278-1.729-3.498-2.383-5.59-2.383c-3.168,0-6.304,1.566-6.304,5.06c0,5.982,8.46,3.432,8.46,6.668
			c0,1.241-1.469,1.797-2.612,1.797c-1.666,0-2.712-0.814-3.727-1.928l-2.612,2.453c1.598,1.796,3.69,2.417,6.108,2.417
			c3.203,0,6.765-1.308,6.765-5.034C123.857,174.039,115.395,176.327,115.395,173.521z"/>
		<path fill="#FFFFFF" d="M153.354,168.674c-3.626,0-6.077,1.665-6.794,5.326l3.854,0.916c0.264-1.507,1.31-2.519,2.745-2.519
			c2.351,0,3.04,1.697,3.04,4.479v7.923h4.113v-9.134C160.312,171.975,157.994,168.674,153.354,168.674z"/>
		<path fill="#FFFFFF" d="M135.304,168.69c-0.075,0-7.172,0.185-7.519,5.607l-0.014,0.24h3.918l0.105-0.299
			c0.205-0.613,0.754-2.249,3.382-2.249c1.192,0,2.168,0.378,2.903,1.126c0.879,0.894,1.352,2.276,1.326,3.895
			c0,1.451-0.416,4.819-4.317,4.869c-1,0.013-1.844-0.306-2.437-0.926c-0.583-0.614-0.787-1.369-0.806-1.938
			c0.405,0,3.175,0.039,3.175,0.039v-2.961h-7.493v0.227c0,5.738,2.587,8.724,7.685,8.862c2.486,0.081,4.488-0.611,5.967-2.072
			c1.992-1.967,2.48-4.833,2.453-6.216C143.542,172.099,140.04,168.651,135.304,168.69z"/>
		<path fill="#FFFFFF" d="M172.767,168.615c-4.729,0-8.036,3.365-8.036,8.179v8.005h3.892v-5.069h4.735V176.4h-4.698
			c0.168-1.901,1.302-3.897,4.107-3.897c3.059,0,4.146,2.37,4.146,4.406v7.89h3.894v-8.005
			C180.806,171.98,177.5,168.615,172.767,168.615z"/>
		<path fill="#FFFFFF" d="M190.531,168.674c-3.631,0-6.082,1.665-6.798,5.326l3.855,0.916c0.262-1.507,1.309-2.519,2.74-2.519
			c2.354,0,3.043,1.697,3.043,4.479v7.923h4.117v-9.134C197.488,171.975,195.166,168.674,190.531,168.674z"/>
		<path fill="#FFFFFF" d="M48.756,177.618c0,2.108-1.023,4.02-3.625,4.02c-2.769,0-2.899-2.903-2.899-4.646v-8.008h-3.955v9.984
			c0,3.23,1.521,6.229,5.767,6.229c2.636,0,4.117-1.353,4.846-2.933h0.063v2.535h3.757v-15.815h-3.953V177.618z"/>
		<path fill="#FFFFFF" d="M24.983,173.49c0-1.182,1.605-1.674,2.766-1.674c1.489,0,2.576,0.558,3.411,1.605l2.9-2.36
			c-1.413-1.74-3.879-2.397-6.203-2.397c-3.519,0-6.997,1.576-6.997,5.086c0,6.009,9.764,3.444,9.764,6.698
			c0,1.248-2.003,1.304-3.273,1.304h-1.923v-2.941h-4.004v5.988h0.171l0,0h5.771v-0.011c4.395-0.035,7.241-0.972,7.241-4.639
			C34.606,174.013,24.983,176.312,24.983,173.49z"/>
		<path fill="#FFFFFF" d="M81.846,168.615c-4.732,0-8.035,3.365-8.035,8.179v8.005h3.89v-5.069h4.736V176.4h-4.701
			c0.168-1.901,1.305-3.897,4.11-3.897c3.058,0,4.142,2.37,4.142,4.406v7.89h3.894v-8.005
			C89.881,171.98,86.577,168.615,81.846,168.615z"/>
		<path fill="#FFFFFF" d="M62.433,168.674c-3.629,0-6.078,1.665-6.799,5.326l3.859,0.916c0.261-1.507,1.306-2.519,2.744-2.519
			c2.354,0,3.037,1.697,3.037,4.479v7.923h4.117v-9.134C69.392,171.975,67.07,168.674,62.433,168.674z"/>
		<path fill="#FFFFFF" d="M99.607,168.674c-3.626,0-6.076,1.665-6.798,5.326l3.857,0.916c0.261-1.507,1.307-2.519,2.742-2.519
			c2.355,0,3.039,1.697,3.039,4.479v7.923h4.115v-9.134C106.563,171.975,104.249,168.674,99.607,168.674z"/>
		<path fill="#FFFFFF" d="M229.576,167.499c0,0-0.826,1.136-0.967,1.336c-0.766-0.167-1.139-0.174-2.168-0.174
			c-4.885-0.118-7.799,1.807-7.975,5.275l-0.012,0.24l4.252-0.043l0.021-0.203c0.166-1.658,0.805-2.559,3.713-2.559
			c0.793,0,2.633,0.204,2.682,2.115c0.037,1.323-1.707,1.633-3.818,1.868l-0.477,0.04c-2.221,0.177-6.361,0.509-6.361,5.129
			c0,0.948,0.582,2.429,1.867,3.431c1.088,0.851,3.096,1.684,6.502,0.833l0.203-0.048l-0.453-2.972l-0.236,0.049
			c-1.576,0.335-2.672,0.267-3.26-0.207c-0.357-0.291-0.531-0.735-0.531-1.358c0-1.682,1.447-1.921,3.66-2.099
			c1.162-0.095,2.248-0.203,2.904-0.719c0,0.981,0,7.361,0,7.361h4.258v-11.856c0-1.08-0.398-1.974-1.105-2.65
			c0.15-0.232,1.814-2.79,1.814-2.79H229.576z"/>
		<g>
			<path fill="#FFFFFF" d="M320.732,178.882h-3.186c-0.002,0.065-0.012,0.125-0.012,0.187c0,3.241,2.764,4.473,5.447,4.473h2.826
				v-2.712h-1.67C321.941,180.829,320.887,180.182,320.732,178.882z"/>
			<path fill="#FFFFFF" d="M320.732,170.382h-3.186c-0.002,0.062-0.012,0.124-0.012,0.187c0,3.241,2.764,4.469,5.447,4.469h2.826
				v-2.709h-1.67C321.941,172.328,320.887,171.678,320.732,170.382z"/>
		</g>
		<path fill="#FFFFFF" d="M345.797,161.103c-2.816,0-5.709,1.294-5.709,4.686c0,0.065,0.012,0.128,0.012,0.2h3.338
			c0.164-1.363,1.271-2.042,3.578-2.042h1.738v-2.844H345.797z"/>
		<path fill="#FFFFFF" d="M344.275,170.641c0-0.026,0-1.589,0-1.589h-4.316v1.104c0,0.758-0.367,1.52-0.982,2.035
			c-0.689,0.582-1.521,0.716-2.533,0.716s-1.611,0.021-2.709,0.021v-3.875h-4.328v15.747h4.328V176.2
			c1.098,0,1.697,0.019,2.709,0.019s1.844,0.136,2.533,0.717c0.615,0.518,0.982,1.276,0.982,2.035v5.828h4.316c0,0,0-6.288,0-6.313
			c0-1.166-0.482-2.322-1.365-3.247c-0.234-0.25-0.502-0.474-0.785-0.674c0.283-0.204,0.551-0.424,0.785-0.676
			C343.793,172.962,344.275,171.807,344.275,170.641z"/>
		<path fill="#FFFFFF" d="M306.828,168.674c-3.627,0-6.08,1.665-6.797,5.326l3.857,0.916c0.262-1.507,1.307-2.519,2.744-2.519
			c2.352,0,3.039,1.697,3.039,4.479v7.923h4.119v-9.134C313.791,171.975,311.467,168.674,306.828,168.674z"/>
		<path fill="#FFFFFF" d="M206.32,173.521c0-1.179,1.24-1.669,2.285-1.669c1.338,0,2.318,0.553,3.074,1.6l2.609-2.352
			c-1.271-1.729-3.496-2.383-5.584-2.383c-3.17,0-6.311,1.566-6.311,5.06c0,5.982,8.471,3.432,8.471,6.668
			c0,1.241-1.473,1.797-2.621,1.797c-1.662,0-2.709-0.814-3.721-1.928l-2.613,2.453c1.596,1.796,3.689,2.417,6.111,2.417
			c3.199,0,6.76-1.308,6.76-5.034C214.781,174.039,206.32,176.327,206.32,173.521z"/>
		<path fill="#FFFFFF" d="M288.613,173.478c0-1.179,1.244-1.671,2.297-1.671c1.342,0,2.322,0.555,3.082,1.605l2.621-2.361
			c-1.279-1.736-3.508-2.393-5.605-2.393c-3.18,0-6.328,1.575-6.328,5.082c0,5.999,8.492,3.441,8.492,6.688
			c0,1.244-1.477,1.806-2.623,1.806c-1.672,0-2.721-0.821-3.742-1.938l-2.617,2.464c1.605,1.802,3.699,2.423,6.129,2.423
			c3.215,0,6.785-1.312,6.785-5.054C297.104,174.003,288.613,176.299,288.613,173.478z"/>
		<rect x="256.365" y="169.052" fill="#FFFFFF" width="4.033" height="15.747"/>
		<path fill="#FFFFFF" d="M272.475,168.615c-4.729,0-8.029,3.365-8.029,8.179v8.005h3.891v-5.069h4.736V176.4h-4.705
			c0.176-1.901,1.305-3.897,4.107-3.897c3.064,0,4.148,2.373,4.148,4.406v7.89h3.893v-8.005
			C280.516,171.98,277.211,168.615,272.475,168.615z"/>
		<path fill="#FFFFFF" d="M241.684,172.821l2.633,8.94h0.85c1.455,0,2.951-1.308,2.912-4.692c-0.084-2.846-0.445-5.27-3.072-5.463
			c-1.172-0.111-1.738,0.193-1.738,0.193l-0.525-2.46c0.889-0.538,1.898-0.731,3.111-0.731c4.688,0,6.465,4.075,6.465,8.307
			c0,4.689-2.545,7.884-5.777,7.884h-5.213l-3.564-11.978H241.684z"/>
	</g>
</g>
</svg>
