<?xml version="1.0" encoding="utf-8"?>
<!-- Generator: Adobe Illustrator 16.0.0, SVG Export Plug-In . SVG Version: 6.00 Build 0)  -->
<!DOCTYPE svg PUBLIC "-//W3C//DTD SVG 1.1//EN" "http://www.w3.org/Graphics/SVG/1.1/DTD/svg11.dtd">
<svg version="1.1" id="Layer_1" xmlns="http://www.w3.org/2000/svg" xmlns:xlink="http://www.w3.org/1999/xlink" x="0px" y="0px"
	 width="220px" height="17.315px" viewBox="0 0 220 17.315" enable-background="new 0 0 220 17.315" xml:space="preserve">
<path fill="#FFFFFF" d="M9.732,9.837C9.479,9.685,6.53,7.899,6.53,7.899C6.366,7.8,6.25,7.644,6.205,7.458
	C6.191,7.4,6.183,7.342,6.183,7.285c0-0.13,0.035-0.257,0.104-0.371C6.387,6.75,6.544,6.634,6.73,6.589
	c0.186-0.046,0.379-0.017,0.543,0.082L8.33,7.31c0.271,0.165,0.625,0.078,0.789-0.193C9.176,7.023,9.203,6.92,9.203,6.819
	c0-0.195-0.099-0.384-0.278-0.493L6.193,4.672C6.052,4.587,5.881,4.567,5.725,4.616c0,0-3.472,1.078-4.574,1.422V5.284
	c0.498-0.285,4.956-2.833,5.458-3.119c0.512,0.305,6.409,3.821,6.907,4.118v3.555H9.732z M13.516,13.577v1.005
	c-0.7,0.199-5.163,1.474-5.456,1.558c-0.311-0.098-5.298-1.673-5.298-1.673c-0.056-0.019-0.115-0.027-0.174-0.027H1.151v-3.451
	h6.757c0.397,0,0.72,0.323,0.72,0.72c0,0.396-0.323,0.719-0.719,0.719H6.327c-0.317,0-0.576,0.258-0.576,0.576
	c0,0.316,0.258,0.574,0.576,0.574H13.516z M14.092,10.988c0.317,0,0.575-0.257,0.575-0.575V5.956c0-0.203-0.107-0.39-0.281-0.494
	L6.909,1.004C6.73,0.898,6.508,0.896,6.329,0.999L0.29,4.449C0.111,4.552,0,4.743,0,4.949v3.308h1.726v1.581h-1.15
	C0.258,9.837,0,10.096,0,10.413v4.602c0,0.152,0.061,0.299,0.168,0.408c0.108,0.106,0.255,0.166,0.408,0.166H2.5
	c0.163,0.053,5.379,1.7,5.379,1.7c0.107,0.034,0.223,0.036,0.332,0.005l6.039-1.727c0.247-0.07,0.417-0.297,0.417-0.553v-2.012
	c0-0.153-0.061-0.3-0.169-0.407c-0.107-0.108-0.254-0.169-0.406-0.169h-1.15v-1.438H14.092z"/>
<g>
	<g>
		<path fill="#FFFFFF" d="M76.703,7.625c0-0.724,0.763-1.025,1.406-1.025c0.821,0,1.424,0.339,1.885,0.983L81.6,6.138
			c-0.785-1.062-2.147-1.463-3.433-1.463c-1.945,0-3.87,0.961-3.87,3.107c0,3.673,5.194,2.106,5.194,4.093
			c0,0.764-0.901,1.105-1.604,1.105c-1.025,0-1.666-0.502-2.29-1.186l-1.604,1.508c0.981,1.102,2.267,1.482,3.752,1.482
			c1.965,0,4.152-0.803,4.152-3.09C81.899,7.943,76.703,9.349,76.703,7.625z"/>
		<path fill="#FFFFFF" d="M100.013,4.649c-2.227,0-3.732,1.022-4.171,3.27l2.366,0.562c0.162-0.925,0.804-1.547,1.685-1.547
			c1.444,0,1.867,1.043,1.867,2.75v4.864h2.527V8.941C104.287,6.675,102.862,4.649,100.013,4.649z"/>
		<path fill="#FFFFFF" d="M88.929,4.659c-0.046,0-4.403,0.113-4.616,3.443l-0.008,0.147h2.406l0.064-0.183
			c0.125-0.377,0.463-1.381,2.076-1.381c0.734,0,1.332,0.232,1.783,0.692c0.541,0.548,0.831,1.397,0.814,2.392
			c0,0.89-0.255,2.958-2.652,2.99c-0.613,0.006-1.13-0.188-1.495-0.569c-0.358-0.376-0.483-0.84-0.495-1.188
			c0.249,0,1.95,0.023,1.95,0.023V9.205h-4.602v0.14c0,3.523,1.589,5.355,4.718,5.441c1.528,0.051,2.756-0.373,3.665-1.271
			c1.223-1.207,1.523-2.967,1.507-3.817C93.987,6.753,91.837,4.635,88.929,4.659z"/>
		<path fill="#FFFFFF" d="M111.935,4.614c-2.906,0-4.935,2.066-4.935,5.021v4.915h2.39v-3.112h2.906V9.392h-2.884
			c0.102-1.166,0.798-2.391,2.523-2.391c1.876,0,2.543,1.454,2.543,2.705v4.843h2.392V9.635
			C116.87,6.68,114.839,4.614,111.935,4.614z"/>
		<path fill="#FFFFFF" d="M122.842,4.649c-2.229,0-3.733,1.022-4.174,3.27l2.366,0.562c0.161-0.925,0.806-1.547,1.682-1.547
			c1.447,0,1.87,1.043,1.87,2.75v4.864h2.528V8.941C127.114,6.675,125.688,4.649,122.842,4.649z"/>
		<path fill="#FFFFFF" d="M35.785,10.141c0,1.294-0.628,2.469-2.227,2.469c-1.701,0-1.78-1.783-1.78-2.854V4.838h-2.429v6.132
			c0,1.983,0.934,3.823,3.541,3.823c1.619,0,2.529-0.83,2.976-1.801h0.039v1.557h2.307V4.838h-2.426V10.141z"/>
		<path fill="#FFFFFF" d="M21.186,7.606c0-0.727,0.985-1.027,1.698-1.027c0.914,0,1.582,0.34,2.096,0.986l1.781-1.45
			c-0.869-1.068-2.383-1.472-3.81-1.472c-2.161,0-4.297,0.967-4.297,3.122c0,3.69,5.995,2.116,5.995,4.114
			c0,0.767-1.23,0.8-2.01,0.8h-1.18v-1.806h-2.46v3.676h0.105l0,0h3.545v-0.006c2.697-0.021,4.445-0.596,4.445-2.848
			C27.094,7.927,21.186,9.338,21.186,7.606z"/>
		<path fill="#FFFFFF" d="M56.103,4.614c-2.906,0-4.934,2.066-4.934,5.021v4.915h2.389v-3.112h2.908V9.392h-2.887
			c0.103-1.166,0.801-2.391,2.524-2.391c1.877,0,2.543,1.454,2.543,2.705v4.843h2.391V9.635C61.038,6.68,59.007,4.614,56.103,4.614z
			"/>
		<path fill="#FFFFFF" d="M44.182,4.649c-2.228,0-3.732,1.022-4.175,3.27l2.37,0.562c0.161-0.925,0.801-1.547,1.685-1.547
			c1.446,0,1.865,1.043,1.865,2.75v4.864h2.528V8.941C48.456,6.675,47.03,4.649,44.182,4.649z"/>
		<path fill="#FFFFFF" d="M67.009,4.649c-2.226,0-3.73,1.022-4.174,3.27l2.368,0.562c0.16-0.925,0.802-1.547,1.685-1.547
			c1.446,0,1.866,1.043,1.866,2.75v4.864h2.528V8.941C71.282,6.675,69.859,4.649,67.009,4.649z"/>
		<path fill="#FFFFFF" d="M146.817,3.926c0,0-0.508,0.699-0.594,0.822c-0.472-0.103-0.699-0.106-1.33-0.106
			c-3-0.072-4.791,1.109-4.898,3.238l-0.006,0.148l2.609-0.027l0.014-0.125c0.102-1.018,0.494-1.57,2.281-1.57
			c0.486,0,1.617,0.125,1.646,1.298c0.022,0.813-1.048,1.002-2.346,1.148c0.001,0-0.291,0.025-0.291,0.025
			c-1.363,0.108-3.907,0.312-3.907,3.148c0,0.582,0.357,1.493,1.146,2.106c0.668,0.523,1.902,1.033,3.994,0.512l0.123-0.029
			l-0.277-1.825l-0.146,0.03c-0.968,0.205-1.642,0.164-2.002-0.127c-0.22-0.178-0.325-0.451-0.325-0.834
			c0-1.033,0.888-1.18,2.246-1.289c0.713-0.058,1.381-0.124,1.784-0.441c0,0.603,0,4.519,0,4.519h2.616v-7.28
			c0-0.663-0.246-1.211-0.68-1.627c0.093-0.142,1.113-1.714,1.113-1.714H146.817z"/>
		<g>
			<path fill="#FFFFFF" d="M202.792,10.917h-1.957c0,0.041-0.006,0.078-0.006,0.115c0,1.989,1.697,2.746,3.346,2.746h1.734v-1.665
				h-1.025C203.535,12.113,202.888,11.715,202.792,10.917z"/>
			<path fill="#FFFFFF" d="M202.792,5.698h-1.957c0,0.037-0.006,0.075-0.006,0.115c0,1.99,1.697,2.744,3.346,2.744h1.734V6.893
				h-1.025C203.535,6.893,202.888,6.494,202.792,5.698z"/>
		</g>
		<path fill="#FFFFFF" d="M218.185,0c-1.731,0-3.508,0.794-3.508,2.877c0,0.041,0.01,0.079,0.01,0.122h2.049
			c0.1-0.837,0.781-1.254,2.195-1.254H220V0H218.185z"/>
		<path fill="#FFFFFF" d="M217.248,5.856c0-0.017,0-0.976,0-0.976H214.6v0.678c0,0.465-0.226,0.934-0.604,1.25
			c-0.422,0.357-0.933,0.439-1.555,0.439c-0.621,0-0.99,0.014-1.664,0.014V4.88h-2.658v9.669h2.658V9.271
			c0.674,0,1.043,0.011,1.664,0.011c0.622,0,1.133,0.083,1.555,0.44c0.379,0.319,0.604,0.785,0.604,1.25v3.578h2.648
			c0,0,0-3.859,0-3.876c0-0.716-0.296-1.425-0.836-1.994c-0.145-0.154-0.309-0.291-0.481-0.415c0.173-0.125,0.337-0.259,0.481-0.415
			C216.952,7.282,217.248,6.572,217.248,5.856z"/>
		<path fill="#FFFFFF" d="M194.255,4.649c-2.227,0-3.732,1.022-4.173,3.27l2.367,0.562c0.161-0.925,0.804-1.547,1.685-1.547
			c1.444,0,1.867,1.043,1.867,2.75v4.864h2.529V8.941C198.53,6.675,197.104,4.649,194.255,4.649z"/>
		<path fill="#FFFFFF" d="M132.538,7.625c0-0.724,0.76-1.025,1.402-1.025c0.822,0,1.424,0.339,1.887,0.983l1.604-1.444
			c-0.782-1.062-2.146-1.463-3.431-1.463c-1.944,0-3.873,0.961-3.873,3.107c0,3.673,5.2,2.106,5.2,4.093
			c0,0.764-0.903,1.105-1.608,1.105c-1.021,0-1.663-0.502-2.286-1.186l-1.604,1.508c0.981,1.102,2.268,1.482,3.755,1.482
			c1.962,0,4.15-0.803,4.15-3.09C137.733,7.943,132.538,9.349,132.538,7.625z"/>
		<path fill="#FFFFFF" d="M183.068,7.599c0-0.725,0.765-1.026,1.413-1.026c0.822,0,1.425,0.34,1.891,0.985l1.609-1.45
			c-0.783-1.066-2.153-1.468-3.44-1.468c-1.954,0-3.886,0.967-3.886,3.121c0,3.684,5.214,2.113,5.214,4.108
			c0,0.764-0.907,1.107-1.61,1.107c-1.027,0-1.672-0.504-2.297-1.19l-1.607,1.516c0.984,1.104,2.271,1.485,3.762,1.485
			c1.975,0,4.168-0.805,4.168-3.102C188.284,7.921,183.068,9.331,183.068,7.599z"/>
		<rect x="163.268" y="4.88" fill="#FFFFFF" width="2.477" height="9.669"/>
		<path fill="#FFFFFF" d="M173.16,4.614c-2.905,0-4.932,2.066-4.932,5.021v4.915h2.392v-3.112h2.907V9.392h-2.889
			c0.106-1.166,0.8-2.391,2.521-2.391c1.882,0,2.548,1.456,2.548,2.705v4.843h2.389V9.635C178.097,6.68,176.067,4.614,173.16,4.614z
			"/>
		<path fill="#FFFFFF" d="M154.253,7.196l1.617,5.49h0.521c0.893,0,1.812-0.804,1.787-2.882c-0.051-1.749-0.273-3.236-1.887-3.354
			c-0.719-0.069-1.066,0.119-1.066,0.119l-0.323-1.51c0.546-0.331,1.166-0.45,1.911-0.45c2.878,0,3.97,2.502,3.97,5.101
			c0,2.879-1.563,4.84-3.55,4.84h-3.199l-2.189-7.353H154.253z"/>
	</g>
</g>
</svg>
