<?xml version="1.0" encoding="utf-8"?>
<!-- Generator: Adobe Illustrator 16.0.0, SVG Export Plug-In . SVG Version: 6.00 Build 0)  -->
<!DOCTYPE svg PUBLIC "-//W3C//DTD SVG 1.1//EN" "http://www.w3.org/Graphics/SVG/1.1/DTD/svg11.dtd">
<svg version="1.1" id="Layer_1" xmlns="http://www.w3.org/2000/svg" xmlns:xlink="http://www.w3.org/1999/xlink" x="0px" y="0px"
	 width="39.369px" height="44px" viewBox="0 0 39.369 44" enable-background="new 0 0 39.369 44" xml:space="preserve">
<path fill="#FFFFFF" d="M26.122,23.929c-0.678-0.41-8.594-5.203-8.594-5.203c-0.441-0.266-0.75-0.687-0.874-1.188
	c-0.037-0.152-0.057-0.308-0.057-0.462c0-0.349,0.094-0.69,0.279-0.994c0.266-0.442,0.688-0.752,1.189-0.875
	c0.499-0.124,1.018-0.044,1.459,0.222l2.833,1.715c0.729,0.442,1.68,0.209,2.119-0.519c0.152-0.251,0.225-0.527,0.225-0.8
	c0-0.522-0.266-1.031-0.746-1.323l-7.333-4.438c-0.378-0.228-0.836-0.282-1.258-0.153c0,0-9.318,2.896-12.278,3.817v-2.024
	c1.338-0.766,13.304-7.603,14.65-8.373C19.113,4.15,34.94,13.587,36.281,14.385v9.544H26.122z M36.281,33.965v2.694
	c-1.884,0.538-13.861,3.959-14.646,4.184c-0.833-0.263-14.224-4.491-14.224-4.491c-0.15-0.048-0.308-0.072-0.466-0.072H3.087v-9.264
	h18.139c1.065,0,1.932,0.867,1.932,1.931s-0.866,1.931-1.93,1.931h-4.246c-0.854,0-1.545,0.69-1.545,1.543
	c0,0.852,0.692,1.545,1.545,1.545H36.281z M37.825,27.016c0.852,0,1.544-0.691,1.544-1.543V13.508c0-0.544-0.287-1.047-0.755-1.325
	L18.545,0.217c-0.479-0.284-1.075-0.29-1.557-0.014L0.776,9.465C0.297,9.741,0,10.251,0,10.806v8.877h4.631v4.246H1.545
	C0.69,23.929,0,24.621,0,25.473v12.35c0,0.409,0.163,0.802,0.451,1.094c0.29,0.289,0.683,0.449,1.094,0.449H6.71
	c0.439,0.141,14.439,4.562,14.439,4.562c0.288,0.093,0.598,0.097,0.889,0.013l16.21-4.632c0.664-0.189,1.121-0.795,1.121-1.485
	V32.42c0-0.409-0.163-0.803-0.453-1.091c-0.289-0.29-0.683-0.452-1.091-0.452h-3.088v-3.861H37.825z"/>
</svg>
