<?xml version="1.0" encoding="utf-8"?>
<!-- Generator: Adobe Illustrator 16.0.0, SVG Export Plug-In . SVG Version: 6.00 Build 0)  -->
<!DOCTYPE svg PUBLIC "-//W3C//DTD SVG 1.1//EN" "http://www.w3.org/Graphics/SVG/1.1/DTD/svg11.dtd">
<svg version="1.1" id="Layer_1" xmlns="http://www.w3.org/2000/svg" xmlns:xlink="http://www.w3.org/1999/xlink" x="0px" y="0px"
	 width="175.683px" height="234.192px" viewBox="0 0 175.683 234.192" enable-background="new 0 0 175.683 234.192"
	 xml:space="preserve">
<path fill="#FF8300" d="M107.267,72.196c-2.047-1.237-25.934-15.697-25.934-15.697c-1.33-0.802-2.262-2.073-2.635-3.584
	c-0.109-0.46-0.172-0.931-0.172-1.396c0-1.053,0.285-2.082,0.844-2.998c0.805-1.334,2.077-2.271,3.588-2.64
	c1.506-0.372,3.07-0.134,4.4,0.67l8.551,5.174c2.199,1.334,5.065,0.631,6.395-1.565c0.457-0.758,0.678-1.592,0.678-2.415
	c0-1.577-0.805-3.11-2.251-3.991L78.604,30.363c-1.139-0.688-2.521-0.852-3.795-0.461c0,0-28.112,8.735-37.043,11.518V35.31
	C41.804,33,77.905,12.374,81.968,10.05c4.148,2.473,51.903,30.943,55.945,33.35v28.796H107.267z M137.913,102.476v8.129
	c-5.68,1.624-41.816,11.948-44.185,12.624c-2.515-0.791-42.915-13.552-42.915-13.552c-0.452-0.145-0.926-0.217-1.404-0.217H37.767
	v-27.95h54.728c3.214,0,5.827,2.617,5.827,5.824c0,3.21-2.613,5.827-5.82,5.827H79.688c-2.574,0-4.662,2.082-4.662,4.658
	c0,2.567,2.088,4.657,4.662,4.657H137.913z M142.572,81.509c2.571,0,4.659-2.084,4.659-4.654v-36.1c0-1.641-0.867-3.16-2.275-3.998
	L84.403,0.654c-1.445-0.855-3.244-0.873-4.698-0.043L30.794,28.558c-1.446,0.832-2.342,2.372-2.342,4.045v26.784h13.972v12.809
	h-9.312c-2.578,0-4.66,2.088-4.66,4.659v37.263c0,1.232,0.49,2.42,1.359,3.299c0.876,0.869,2.062,1.355,3.301,1.355h15.583
	c1.325,0.424,43.565,13.762,43.565,13.762c0.867,0.277,1.801,0.291,2.683,0.041l48.906-13.977c2.001-0.57,3.382-2.401,3.382-4.48
	V97.819c0-1.237-0.49-2.424-1.366-3.295c-0.874-0.874-2.059-1.363-3.293-1.363h-9.315V81.509H142.572z"/>
<g>
	<path fill="#FF8300" d="M14.601,158.935c0-4.219,5.694-5.949,9.807-5.949c5.247,0,9.115,1.965,12.066,5.714l10.268-8.386
		c-5.001-6.18-13.751-8.49-21.959-8.49c-12.445,0-24.773,5.58-24.773,18.027c0,21.271,34.557,12.197,34.557,23.702
		c0,4.406-7.068,4.604-11.59,4.604h-6.8v-10.407H1.998v21.189h21.026v-0.028c15.577-0.134,25.656-3.433,25.656-16.408
		C48.681,160.76,14.601,168.897,14.601,158.935"/>
	<path fill="#FF8300" d="M83.546,141.823c-0.281,0-25.379,0.631-26.62,19.834l-0.054,0.827h13.854l0.385-1.046
		c0.742-2.174,2.679-7.945,11.968-7.945c4.228,0,7.641,1.326,10.264,3.971c3.114,3.159,4.797,8.058,4.685,13.788
		c0,5.125-1.474,17.041-15.27,17.205c-3.547,0.066-6.516-1.06-8.619-3.262c-2.068-2.19-2.791-4.841-2.846-6.863
		c1.431,0.016,11.237,0.143,11.237,0.143v-10.463H56.02v0.784c0,20.339,9.145,30.869,27.187,31.358
		c8.764,0.291,15.889-2.16,21.101-7.329c7.071-6.979,8.774-17.118,8.667-21.985C112.681,153.876,100.276,141.68,83.546,141.823"/>
	<path fill="#FF8300" d="M175.683,137.688h-15.99c0,0-2.914,4.038-3.438,4.735c-2.699-0.6-4.011-0.6-7.667-0.6
		c-17.319-0.428-27.606,6.371-28.229,18.66l-0.053,0.857l15.05-0.173l0.092-0.701c0.562-5.864,2.846-9.056,13.14-9.056
		c2.793,0,9.302,0.728,9.507,7.477c0.132,4.686-6.057,5.782-13.549,6.627l-1.674,0.156c-7.848,0.604-22.513,1.778-22.513,18.145
		c0,3.379,2.069,8.608,6.595,12.149c3.861,3.005,10.981,5.971,23.035,2.96l0.732-0.165l-1.631-10.548l-0.83,0.203
		c-5.594,1.182-9.454,0.915-11.535-0.76c-1.277-1.025-1.887-2.604-1.887-4.797c0-5.967,5.125-6.835,12.955-7.446
		c4.119-0.328,7.984-0.7,10.301-2.537v26.063h15.09v-41.986c0-3.812-1.426-6.98-3.928-9.386
		C169.789,146.749,175.683,137.688,175.683,137.688"/>
	<polygon fill="#FF8300" points="42.653,205.927 48.808,205.927 48.808,216.348 60.768,216.348 60.768,205.927 66.923,205.927 
		66.923,233.868 60.768,233.868 60.768,221.795 48.808,221.795 48.808,233.868 42.653,233.868 	"/>
	<path fill="#FF8300" d="M87.794,228.659h5.528c1.935,0,4.104-0.829,4.104-3.276c0-2.644-2.949-3.077-4.97-3.077h-4.663V228.659z
		 M87.794,217.093h4.473c1.888,0,3.863-0.792,3.863-3.041c0-2.326-2.21-2.916-4.148-2.916h-4.188V217.093z M81.645,205.927h10.413
		c4.898,0,10.234,1.025,10.234,7.104c0,3.12-1.938,5.244-4.819,6.161v0.074c3.671,0.48,6.118,3.195,6.118,6.832
		c0,5.838-5.527,7.77-10.5,7.77H81.645V205.927z"/>
	<path fill="#FF8300" d="M114.842,214.052l-3.392,8.688h6.834L114.842,214.052z M112.468,205.927h5.096l12.164,27.941h-6.953
		l-2.4-5.914h-10.863l-2.326,5.914h-6.787L112.468,205.927z"/>
	<polygon fill="#FF8300" points="128.579,205.927 136.958,205.927 148.831,225.354 148.916,225.354 148.916,205.927 
		155.076,205.927 155.076,233.868 147.019,233.868 134.827,213.981 134.74,213.981 134.74,233.868 128.579,233.868 	"/>
	<polygon fill="#FF8300" points="149.54,205.927 155.706,205.927 155.706,217.529 166.552,205.927 174.608,205.927 162.177,218.909 
		175.683,233.868 167.073,233.868 155.706,220.604 155.706,233.868 149.54,233.868 	"/>
	<path fill="#FF8300" d="M22.046,223.395c-0.024,0.66-0.219,2.364-1.638,3.823c-1.198,1.21-2.878,1.833-4.864,1.815
		c-7.672-0.081-8.508-6.539-8.508-9.309c-0.041-3.071,0.884-5.704,2.605-7.41c1.478-1.439,3.408-2.172,5.736-2.172
		c5.207,0,6.322,3.184,6.736,4.374c0,0,0.051,0.138,0.1,0.263h6.554c-0.661-9.503-13.491-9.79-13.616-9.79
		c-8.607-0.061-14.973,6.06-15.15,14.534c-0.032,2.467,0.864,7.545,4.461,11.01c2.658,2.561,6.307,3.792,10.849,3.647
		c9.231-0.239,13.93-5.51,13.933-15.685h-13.14v4.517c0.762-0.015,5.95-0.074,5.95-0.074L22.046,223.395z"/>
</g>
</svg>
