<?xml version="1.0" encoding="utf-8"?>
<!-- Generator: Adobe Illustrator 16.0.0, SVG Export Plug-In . SVG Version: 6.00 Build 0)  -->
<!DOCTYPE svg PUBLIC "-//W3C//DTD SVG 1.1//EN" "http://www.w3.org/Graphics/SVG/1.1/DTD/svg11.dtd">
<svg version="1.1" id="Layer_1" xmlns="http://www.w3.org/2000/svg" xmlns:xlink="http://www.w3.org/1999/xlink" x="0px" y="0px"
	 width="266.41px" height="134.493px" viewBox="0 0 266.41 134.493" enable-background="new 0 0 266.41 134.493"
	 xml:space="preserve">
<g>
	<g>
		<path fill="#FF8300" d="M64.036,58.658c-1.662-1.005-21.07-12.754-21.07-12.754c-1.081-0.651-1.837-1.685-2.141-2.912
			c-0.089-0.374-0.14-0.756-0.14-1.134c0-0.855,0.232-1.691,0.686-2.436c0.654-1.084,1.688-1.845,2.914-2.146
			c1.225-0.302,2.495-0.108,3.576,0.545l6.946,4.204c1.788,1.084,4.116,0.513,5.196-1.272c0.372-0.615,0.551-1.293,0.551-1.962
			c0-1.281-0.653-2.527-1.829-3.243L40.749,24.67c-0.925-0.56-2.049-0.692-3.083-0.375c0,0-22.841,7.097-30.097,9.358v-4.963
			c3.279-1.878,32.612-18.636,35.913-20.524c3.371,2.01,42.171,25.142,45.455,27.097v23.396H64.036z M88.936,83.261v6.604
			c-4.615,1.318-33.976,9.706-35.898,10.257c-2.044-0.645-34.869-11.011-34.869-11.011c-0.367-0.119-0.752-0.178-1.14-0.178h-9.46
			V66.225h44.466c2.611,0,4.734,2.126,4.734,4.732c0,2.607-2.123,4.734-4.729,4.734H41.63c-2.092,0-3.789,1.692-3.789,3.785
			c0,2.086,1.696,3.784,3.789,3.784H88.936z M92.722,66.225c2.089,0,3.786-1.693,3.786-3.782v-29.33c0-1.333-0.705-2.568-1.85-3.249
			L45.461,0.531c-1.176-0.695-2.636-0.71-3.818-0.035L1.903,23.203C0.728,23.879,0,25.13,0,26.49v21.762h11.353v10.407H3.787
			C1.692,58.658,0,60.354,0,62.443v30.275c0,1.002,0.399,1.966,1.105,2.681C1.816,96.105,2.78,96.5,3.787,96.5h12.662
			c1.076,0.344,35.396,11.183,35.396,11.183c0.704,0.224,1.463,0.235,2.18,0.032L93.76,96.359c1.626-0.463,2.748-1.951,2.748-3.641
			V79.477c0-1.005-0.399-1.97-1.11-2.678c-0.71-0.71-1.673-1.107-2.676-1.107h-7.569v-9.466H92.722z"/>
		<path fill="#FF8300" d="M135.128,35.617c0-3.428,4.627-4.833,7.968-4.833c4.264,0,7.406,1.596,9.805,4.642l8.342-6.812
			c-4.062-5.021-11.174-6.899-17.842-6.899c-10.111,0-20.128,4.534-20.128,14.647c0,17.282,28.077,9.91,28.077,19.258
			c0,3.58-5.742,3.74-9.416,3.74h-5.525v-8.456h-11.52V68.12h17.084v-0.023c12.656-0.109,20.845-2.789,20.845-13.332
			C162.817,37.101,135.128,43.712,135.128,35.617"/>
		<path fill="#FF8300" d="M191.146,21.714c-0.229,0-20.621,0.513-21.629,16.115l-0.044,0.672h11.256l0.312-0.85
			c0.604-1.767,2.178-6.456,9.725-6.456c3.435,0,6.207,1.077,8.339,3.227c2.53,2.566,3.897,6.546,3.806,11.202
			c0,4.164-1.197,13.846-12.406,13.979c-2.881,0.053-5.293-0.861-7.003-2.65c-1.681-1.78-2.268-3.933-2.312-5.577
			c1.162,0.012,9.131,0.116,9.131,0.116v-8.501h-21.539v0.637c0,16.526,7.43,25.081,22.088,25.479
			c7.121,0.237,12.91-1.755,17.145-5.955c5.745-5.67,7.129-13.908,7.041-17.862C214.816,31.508,204.738,21.598,191.146,21.714"/>
		<path fill="#FF8300" d="M266.006,18.354h-12.992c0,0-2.367,3.281-2.793,3.847c-2.193-0.487-3.258-0.487-6.229-0.487
			c-14.073-0.347-22.43,5.177-22.938,15.161l-0.042,0.697l12.229-0.14l0.075-0.57c0.457-4.765,2.311-7.358,10.676-7.358
			c2.269,0,7.557,0.591,7.724,6.075c0.106,3.807-4.922,4.698-11.009,5.384l-1.36,0.128c-6.375,0.49-18.292,1.444-18.292,14.742
			c0,2.745,1.682,6.994,5.359,9.871c3.137,2.442,8.922,4.851,18.716,2.405l0.595-0.134l-1.324-8.57l-0.676,0.165
			c-4.543,0.96-7.682,0.744-9.371-0.616c-1.037-0.834-1.533-2.116-1.533-3.898c0-4.848,4.164-5.553,10.525-6.05
			c3.348-0.267,6.488-0.569,8.37-2.061V68.12h12.259V34.007c0-3.098-1.156-5.672-3.189-7.626
			C261.217,25.717,266.006,18.354,266.006,18.354"/>
		<polygon fill="#FF8300" points="157.92,73.798 162.922,73.798 162.922,82.265 172.638,82.265 172.638,73.798 177.641,73.798 
			177.641,96.5 172.638,96.5 172.638,86.691 162.922,86.691 162.922,96.5 157.92,96.5 		"/>
		<path fill="#FF8300" d="M194.598,92.268h4.49c1.572,0,3.336-0.674,3.336-2.661c0-2.149-2.396-2.501-4.039-2.501h-3.787V92.268z
			 M194.598,82.869h3.634c1.534,0,3.138-0.643,3.138-2.47c0-1.89-1.795-2.37-3.371-2.37h-3.4V82.869z M189.601,73.798h8.461
			c3.979,0,8.314,0.833,8.314,5.772c0,2.534-1.575,4.26-3.915,5.006v0.06c2.982,0.392,4.971,2.596,4.971,5.552
			c0,4.743-4.49,6.312-8.531,6.312h-9.3V73.798z"/>
		<path fill="#FF8300" d="M216.572,80.399l-2.755,7.058h5.554L216.572,80.399z M214.644,73.798h4.142l9.883,22.702h-5.65
			l-1.949-4.805h-8.827l-1.89,4.805h-5.516L214.644,73.798z"/>
		<polygon fill="#FF8300" points="227.734,73.798 234.542,73.798 244.189,89.583 244.258,89.583 244.258,73.798 249.262,73.798 
			249.262,96.5 242.716,96.5 232.811,80.343 232.74,80.343 232.74,96.5 227.734,96.5 		"/>
		<polygon fill="#FF8300" points="244.766,73.798 249.775,73.798 249.775,83.226 258.588,73.798 265.133,73.798 255.032,84.346 
			266.006,96.5 259.011,96.5 249.775,85.723 249.775,96.5 244.766,96.5 		"/>
		<path fill="#FF8300" d="M141.178,87.99c-0.02,0.536-0.178,1.921-1.33,3.105c-0.975,0.984-2.338,1.49-3.953,1.476
			c-6.233-0.066-6.912-5.313-6.912-7.563c-0.034-2.494,0.718-4.635,2.117-6.021c1.201-1.169,2.769-1.764,4.661-1.764
			c4.23,0,5.137,2.586,5.473,3.554c0,0,0.041,0.111,0.081,0.213h5.325c-0.537-7.722-10.961-7.954-11.062-7.954
			c-6.994-0.049-12.165,4.923-12.31,11.81c-0.026,2.004,0.702,6.13,3.624,8.944c2.16,2.081,5.124,3.082,8.814,2.963
			c7.501-0.193,11.316-4.477,11.32-12.742H136.35v3.669c0.619-0.012,4.834-0.06,4.834-0.06L141.178,87.99z"/>
	</g>
	<g>
		<g>
			<path fill="#FF8300" d="M76.809,125.007c0-0.956,1.006-1.354,1.857-1.354c1.086,0,1.885,0.449,2.495,1.299l2.126-1.91
				c-1.039-1.406-2.842-1.937-4.542-1.937c-2.575,0-5.122,1.274-5.122,4.11c0,4.86,6.873,2.789,6.873,5.419
				c0,1.008-1.192,1.46-2.122,1.46c-1.354,0-2.204-0.662-3.028-1.565l-2.123,1.992c1.298,1.46,2.999,1.964,4.963,1.964
				c2.603,0,5.496-1.062,5.496-4.091C83.684,125.431,76.809,127.288,76.809,125.007z"/>
			<path fill="#FF8300" d="M107.65,121.069c-2.947,0-4.937,1.354-5.521,4.327l3.131,0.744c0.215-1.223,1.064-2.045,2.232-2.045
				c1.91,0,2.469,1.379,2.469,3.639v6.437h3.343v-7.421C113.304,123.752,111.42,121.069,107.65,121.069z"/>
			<path fill="#FF8300" d="M92.984,121.083c-0.062,0-5.828,0.15-6.109,4.559l-0.011,0.194h3.184l0.085-0.243
				c0.167-0.499,0.613-1.828,2.748-1.828c0.969,0,1.761,0.308,2.358,0.914c0.715,0.727,1.098,1.851,1.078,3.164
				c0,1.181-0.337,3.919-3.508,3.957c-0.812,0.01-1.498-0.249-1.979-0.752c-0.474-0.499-0.641-1.111-0.655-1.574
				c0.33,0.001,2.58,0.03,2.58,0.03v-2.403h-6.087v0.185c0,4.661,2.102,7.085,6.243,7.199c2.02,0.066,3.647-0.498,4.848-1.685
				c1.619-1.598,2.016-3.926,1.992-5.049C99.678,123.854,96.833,121.052,92.984,121.083z"/>
			<path fill="#FF8300" d="M123.423,121.022c-3.843,0-6.53,2.733-6.53,6.645v6.504h3.161v-4.119h3.849v-2.704h-3.817
				c0.136-1.544,1.058-3.167,3.337-3.167c2.484,0,3.368,1.927,3.368,3.58v6.41h3.163v-6.504
				C129.954,123.756,127.267,121.022,123.423,121.022z"/>
			<path fill="#FF8300" d="M137.855,121.069c-2.951,0-4.94,1.354-5.523,4.327l3.133,0.744c0.213-1.223,1.062-2.045,2.227-2.045
				c1.912,0,2.473,1.379,2.473,3.639v6.437h3.346v-7.421C143.51,123.752,141.621,121.069,137.855,121.069z"/>
			<path fill="#FF8300" d="M22.665,128.337c0,1.714-0.832,3.267-2.945,3.267c-2.249,0-2.355-2.36-2.355-3.776v-6.506h-3.213v8.112
				c0,2.625,1.234,5.06,4.685,5.06c2.141,0,3.346-1.099,3.936-2.382h0.053v2.06h3.051v-12.85h-3.211V128.337z"/>
			<path fill="#FF8300" d="M3.35,124.983c0-0.961,1.304-1.36,2.247-1.36c1.21,0,2.093,0.452,2.772,1.305l2.355-1.919
				c-1.147-1.412-3.151-1.946-5.039-1.946c-2.859,0-5.685,1.281-5.685,4.134c0,4.879,7.933,2.798,7.933,5.44
				c0,1.014-1.627,1.059-2.66,1.059H3.71v-2.391H0.458v4.866h0.138l0,0h4.689v-0.006c3.57-0.032,5.883-0.789,5.883-3.771
				C11.168,125.407,3.35,127.276,3.35,124.983z"/>
			<path fill="#FF8300" d="M49.551,121.022c-3.845,0-6.528,2.733-6.528,6.645v6.504h3.16v-4.119h3.848v-2.704h-3.819
				c0.136-1.544,1.059-3.167,3.339-3.167c2.484,0,3.364,1.927,3.364,3.58v6.41h3.164v-6.504
				C56.079,123.756,53.394,121.022,49.551,121.022z"/>
			<path fill="#FF8300" d="M33.777,121.069c-2.948,0-4.938,1.354-5.523,4.327l3.136,0.744c0.212-1.223,1.061-2.045,2.229-2.045
				c1.913,0,2.468,1.379,2.468,3.639v6.437h3.346v-7.421C39.432,123.752,37.545,121.069,33.777,121.069z"/>
			<path fill="#FF8300" d="M63.981,121.069c-2.947,0-4.938,1.354-5.524,4.327l3.135,0.744c0.212-1.223,1.061-2.045,2.227-2.045
				c1.915,0,2.469,1.379,2.469,3.639v6.437h3.344v-7.421C69.633,123.752,67.752,121.069,63.981,121.069z"/>
			<path fill="#FF8300" d="M169.578,120.114c0,0-0.672,0.926-0.784,1.086c-0.624-0.135-0.926-0.14-1.763-0.14
				c-3.968-0.097-6.335,1.467-6.479,4.285l-0.009,0.196l3.452-0.037l0.02-0.162c0.133-1.35,0.654-2.08,3.016-2.08
				c0.645,0,2.141,0.167,2.18,1.718c0.029,1.077-1.387,1.327-3.104,1.521c0.002-0.003-0.385,0.031-0.385,0.031
				c-1.805,0.144-5.17,0.414-5.17,4.167c0,0.771,0.473,1.972,1.518,2.786c0.882,0.691,2.516,1.368,5.282,0.68l0.165-0.041
				l-0.369-2.415l-0.189,0.041c-1.282,0.271-2.172,0.217-2.648-0.169c-0.292-0.235-0.433-0.598-0.433-1.104
				c0-1.365,1.175-1.56,2.974-1.705c0.943-0.076,1.826-0.165,2.359-0.584c0,0.8,0,5.98,0,5.98h3.461v-9.633
				c0-0.876-0.324-1.603-0.9-2.153c0.123-0.188,1.476-2.268,1.476-2.268H169.578z"/>
			<g>
				<path fill="#FF8300" d="M243.642,129.363h-2.587c-0.002,0.056-0.01,0.102-0.01,0.152c0,2.636,2.245,3.635,4.426,3.635h2.295
					v-2.203h-1.355C244.625,130.947,243.768,130.42,243.642,129.363z"/>
				<path fill="#FF8300" d="M243.642,122.457h-2.587c-0.002,0.053-0.01,0.101-0.01,0.153c0,2.633,2.245,3.63,4.426,3.63h2.295
					v-2.201h-1.355C244.625,124.039,243.768,123.513,243.642,122.457z"/>
			</g>
			<path fill="#FF8300" d="M264.008,114.92c-2.29,0-4.641,1.049-4.641,3.806c0,0.055,0.012,0.105,0.012,0.161h2.711
				c0.132-1.104,1.033-1.658,2.908-1.658h1.412v-2.309H264.008z"/>
			<path fill="#FF8300" d="M262.771,122.669c0-0.021,0-1.292,0-1.292h-3.508v0.896c0,0.615-0.297,1.235-0.798,1.655
				c-0.56,0.472-1.236,0.582-2.058,0.582c-0.82,0-1.311,0.015-2.202,0.015v-3.148h-3.516v12.794h3.516v-6.985
				c0.892,0,1.382,0.015,2.202,0.015c0.821,0,1.498,0.109,2.058,0.581c0.501,0.422,0.798,1.04,0.798,1.655v4.734h3.508
				c0,0,0-5.109,0-5.128c0-0.948-0.393-1.886-1.109-2.639c-0.19-0.205-0.407-0.385-0.637-0.549c0.229-0.166,0.446-0.343,0.637-0.548
				C262.379,124.553,262.771,123.615,262.771,122.669z"/>
			<path fill="#FF8300" d="M232.346,121.069c-2.947,0-4.94,1.354-5.521,4.327l3.133,0.744c0.214-1.223,1.062-2.045,2.229-2.045
				c1.91,0,2.47,1.379,2.47,3.639v6.437h3.346v-7.421C238.002,123.752,236.115,121.069,232.346,121.069z"/>
			<path fill="#FF8300" d="M150.684,125.007c0-0.956,1.008-1.354,1.857-1.354c1.088,0,1.885,0.449,2.496,1.299l2.121-1.91
				c-1.033-1.406-2.84-1.937-4.537-1.937c-2.574,0-5.126,1.274-5.126,4.11c0,4.86,6.882,2.789,6.882,5.419
				c0,1.008-1.197,1.46-2.13,1.46c-1.351,0-2.2-0.662-3.023-1.565l-2.124,1.992c1.298,1.46,3,1.964,4.967,1.964
				c2.6,0,5.49-1.062,5.49-4.091C157.557,125.431,150.684,127.288,150.684,125.007z"/>
			<path fill="#FF8300" d="M217.545,124.974c0-0.958,1.013-1.358,1.868-1.358c1.089,0,1.886,0.451,2.503,1.306l2.131-1.918
				c-1.041-1.412-2.852-1.945-4.555-1.945c-2.586,0-5.142,1.279-5.142,4.128c0,4.877,6.899,2.797,6.899,5.437
				c0,1.011-1.199,1.466-2.131,1.466c-1.359,0-2.213-0.668-3.04-1.573l-2.127,2.001c1.306,1.464,3.006,1.969,4.979,1.969
				c2.613,0,5.514-1.063,5.514-4.105C224.445,125.399,217.545,127.266,217.545,124.974z"/>
			<rect x="191.346" y="121.377" fill="#FF8300" width="3.276" height="12.794"/>
			<path fill="#FF8300" d="M204.434,121.022c-3.842,0-6.524,2.733-6.524,6.645v6.504h3.163v-4.119h3.846v-2.704h-3.82
				c0.141-1.544,1.06-3.167,3.336-3.167c2.49,0,3.371,1.931,3.371,3.58v6.41h3.162v-6.504
				C210.967,123.756,208.283,121.022,204.434,121.022z"/>
			<path fill="#FF8300" d="M179.417,124.44l2.139,7.263h0.69c1.182,0,2.397-1.062,2.363-3.812c-0.065-2.313-0.359-4.28-2.492-4.438
				c-0.953-0.091-1.414,0.158-1.414,0.158l-0.428-2c0.724-0.438,1.544-0.595,2.528-0.595c3.81,0,5.253,3.312,5.253,6.75
				c0,3.811-2.068,6.404-4.695,6.404h-4.232l-2.896-9.73H179.417z"/>
		</g>
	</g>
</g>
</svg>
