<?xml version="1.0" encoding="utf-8"?>
<!-- Generator: Adobe Illustrator 16.0.0, SVG Export Plug-In . SVG Version: 6.00 Build 0)  -->
<!DOCTYPE svg PUBLIC "-//W3C//DTD SVG 1.1//EN" "http://www.w3.org/Graphics/SVG/1.1/DTD/svg11.dtd">
<svg version="1.1" id="Layer_1" xmlns="http://www.w3.org/2000/svg" xmlns:xlink="http://www.w3.org/1999/xlink" x="0px" y="0px"
	 width="98.648px" height="40px" viewBox="0 0 98.648 40" enable-background="new 0 0 98.648 40" xml:space="preserve">
<g>
	<path fill="#FFFFFF" d="M23.748,21.754c-0.616-0.373-7.813-4.73-7.813-4.73c-0.401-0.242-0.682-0.625-0.794-1.08
		c-0.033-0.138-0.051-0.28-0.051-0.42c0-0.317,0.086-0.627,0.254-0.903c0.242-0.402,0.625-0.684,1.081-0.795
		c0.454-0.112,0.926-0.041,1.327,0.202l2.576,1.559c0.663,0.402,1.526,0.19,1.926-0.472c0.138-0.228,0.204-0.479,0.204-0.728
		c0-0.475-0.242-0.937-0.678-1.203l-6.666-4.035c-0.344-0.208-0.76-0.257-1.144-0.139c0,0-8.47,2.632-11.162,3.471V10.64
		c1.217-0.696,12.095-6.911,13.319-7.611c1.25,0.745,15.639,9.324,16.857,10.049v8.677H23.748z M32.982,30.878v2.449
		c-1.712,0.488-12.6,3.599-13.313,3.803c-0.758-0.238-12.931-4.083-12.931-4.083c-0.136-0.043-0.279-0.064-0.423-0.064H2.807V24.56
		h16.49c0.969,0,1.756,0.789,1.756,1.756c0,0.966-0.788,1.756-1.754,1.756h-3.86c-0.775,0-1.405,0.627-1.405,1.402
		c0,0.773,0.629,1.404,1.405,1.404H32.982z M34.386,24.56c0.774,0,1.404-0.628,1.404-1.402V12.28c0-0.494-0.261-0.952-0.686-1.205
		L16.859,0.197c-0.436-0.258-0.978-0.263-1.416-0.013L0.706,8.605C0.27,8.856,0,9.32,0,9.824v8.07h4.21v3.859H1.404
		C0.627,21.754,0,22.383,0,23.157v11.228c0,0.372,0.148,0.729,0.41,0.994c0.264,0.263,0.621,0.408,0.994,0.408H6.1
		c0.399,0.128,13.127,4.146,13.127,4.146c0.261,0.085,0.543,0.089,0.809,0.012l14.736-4.21c0.603-0.172,1.019-0.724,1.019-1.351
		v-4.911c0-0.373-0.148-0.73-0.412-0.992c-0.263-0.264-0.62-0.41-0.992-0.41H31.58V24.56H34.386z"/>
	<path fill="#FFFFFF" d="M50.113,13.209c0-1.271,1.715-1.792,2.955-1.792c1.581,0,2.747,0.592,3.636,1.722l3.094-2.527
		c-1.507-1.862-4.144-2.558-6.616-2.558c-3.75,0-7.465,1.681-7.465,5.432c0,6.409,10.413,3.675,10.413,7.142
		c0,1.327-2.13,1.387-3.493,1.387h-2.048v-3.136h-4.271v6.385h6.335v-0.009c4.692-0.04,7.73-1.034,7.73-4.944
		C60.382,13.759,50.113,16.211,50.113,13.209"/>
	<path fill="#FFFFFF" d="M70.887,8.053c-0.084,0-7.646,0.19-8.021,5.976l-0.017,0.249h4.175l0.115-0.315
		c0.224-0.655,0.808-2.394,3.605-2.394c1.274,0,2.303,0.399,3.094,1.196c0.938,0.952,1.445,2.428,1.412,4.155
		c0,1.544-0.444,5.135-4.602,5.184c-1.069,0.021-1.964-0.319-2.598-0.982c-0.623-0.66-0.841-1.459-0.857-2.068
		c0.432,0.005,3.387,0.043,3.387,0.043v-3.153h-7.988v0.236c0,6.128,2.755,9.301,8.191,9.449c2.641,0.088,4.788-0.65,6.358-2.208
		c2.131-2.103,2.645-5.158,2.611-6.625C79.666,11.685,75.928,8.01,70.887,8.053"/>
	<path fill="#FFFFFF" d="M98.648,6.807h-4.817c0,0-0.878,1.216-1.036,1.426c-0.813-0.18-1.208-0.18-2.31-0.18
		c-5.219-0.129-8.318,1.919-8.507,5.623l-0.015,0.258l4.534-0.052l0.027-0.211c0.17-1.767,0.857-2.729,3.96-2.729
		c0.842,0,2.803,0.219,2.864,2.253c0.04,1.412-1.824,1.742-4.083,1.997l-0.504,0.047c-2.364,0.182-6.784,0.536-6.784,5.467
		c0,1.018,0.625,2.594,1.988,3.662c1.163,0.905,3.308,1.799,6.94,0.892l0.221-0.05l-0.491-3.179l-0.25,0.062
		c-1.686,0.355-2.849,0.276-3.477-0.229c-0.385-0.309-0.568-0.784-0.568-1.445c0-1.798,1.545-2.06,3.904-2.244
		c1.241-0.099,2.406-0.211,3.104-0.765v7.854h4.547V12.612c0-1.149-0.43-2.104-1.184-2.828C96.873,9.537,98.648,6.807,98.648,6.807"
		/>
	<polygon fill="#FFFFFF" points="58.565,27.369 60.42,27.369 60.42,30.509 64.023,30.509 64.023,27.369 65.879,27.369 
		65.879,35.787 64.023,35.787 64.023,32.149 60.42,32.149 60.42,35.787 58.565,35.787 	"/>
	<path fill="#FFFFFF" d="M72.167,34.218h1.666c0.582,0,1.236-0.249,1.236-0.987c0-0.797-0.888-0.927-1.498-0.927h-1.404V34.218z
		 M72.167,30.732h1.348c0.569,0,1.164-0.238,1.164-0.917c0-0.7-0.666-0.878-1.25-0.878h-1.262V30.732z M70.314,27.369h3.137
		c1.477,0,3.084,0.308,3.084,2.139c0,0.941-0.584,1.581-1.452,1.857v0.021c1.106,0.146,1.844,0.964,1.844,2.059
		c0,1.76-1.666,2.342-3.164,2.342h-3.448V27.369z"/>
	<path fill="#FFFFFF" d="M80.317,29.815l-1.022,2.618h2.059L80.317,29.815z M79.602,27.369h1.535l3.666,8.418h-2.096l-0.724-1.782
		H78.71l-0.7,1.782h-2.045L79.602,27.369z"/>
	<polygon fill="#FFFFFF" points="84.456,27.369 86.98,27.369 90.559,33.222 90.584,33.222 90.584,27.369 92.439,27.369 
		92.439,35.787 90.012,35.787 86.339,29.795 86.312,29.795 86.312,35.787 84.456,35.787 	"/>
	<polygon fill="#FFFFFF" points="90.771,27.369 92.63,27.369 92.63,30.863 95.897,27.369 98.326,27.369 94.579,31.28 98.648,35.787 
		96.055,35.787 92.63,31.791 92.63,35.787 90.771,35.787 	"/>
	<path fill="#FFFFFF" d="M52.356,32.632c-0.008,0.199-0.066,0.712-0.493,1.151c-0.361,0.365-0.868,0.553-1.466,0.547
		c-2.312-0.024-2.563-1.97-2.563-2.804c-0.012-0.926,0.266-1.72,0.785-2.233c0.445-0.434,1.027-0.654,1.728-0.654
		c1.569,0,1.905,0.959,2.03,1.317c0,0,0.015,0.042,0.029,0.08h1.976c-0.199-2.863-4.065-2.95-4.103-2.95
		c-2.594-0.018-4.511,1.826-4.565,4.38c-0.009,0.742,0.26,2.272,1.344,3.317c0.801,0.771,1.9,1.142,3.269,1.099
		c2.781-0.072,4.197-1.66,4.197-4.726h-3.958v1.359c0.229-0.003,1.792-0.021,1.792-0.021L52.356,32.632z"/>
</g>
</svg>
