<?xml version="1.0" encoding="utf-8"?>
<!-- Generator: Adobe Illustrator 16.0.0, SVG Export Plug-In . SVG Version: 6.00 Build 0)  -->
<!DOCTYPE svg PUBLIC "-//W3C//DTD SVG 1.1//EN" "http://www.w3.org/Graphics/SVG/1.1/DTD/svg11.dtd">
<svg version="1.1" id="Layer_1" xmlns="http://www.w3.org/2000/svg" xmlns:xlink="http://www.w3.org/1999/xlink" x="0px" y="0px"
	 width="260.971px" height="44px" viewBox="0 0 260.971 44" enable-background="new 0 0 260.971 44" xml:space="preserve">
<g>
	<g>
		<path fill="#FFFFFF" d="M119.705,37.36c-1.535-1.407-2.103-3.236-1.708-5.48l0.075-0.43l6.573-1.178l-0.094,0.535
			c-0.177,1-0.02,1.774,0.472,2.327c0.49,0.554,1.252,0.83,2.287,0.83c1.106,0,2.033-0.356,2.783-1.07
			c0.75-0.713,1.39-1.81,1.917-3.29c0.528-1.479,1.017-3.484,1.462-6.017c0.674-3.815,0.809-6.506,0.408-8.078
			c-0.4-1.568-1.404-2.354-3.008-2.354c-1.106,0-2.024,0.305-2.755,0.911c-0.731,0.606-1.199,1.497-1.406,2.673l-0.094,0.535
			l-6.16-1.176l0.095-0.535c0.428-2.423,1.686-4.35,3.773-5.777c2.088-1.425,4.593-2.139,7.517-2.139
			c2.603,0,4.61,0.499,6.022,1.497c1.41,1,2.285,2.657,2.625,4.975c0.342,2.319,0.159,5.474-0.546,9.468
			c-0.685,3.887-1.606,6.989-2.764,9.307c-1.158,2.319-2.62,3.994-4.39,5.027c-1.77,1.034-3.92,1.552-6.453,1.552
			C123.451,39.474,121.239,38.771,119.705,37.36z"/>
		<path fill="#FFFFFF" d="M155.728,16.581c0.403-2.283-0.43-3.425-2.498-3.425c-0.963,0-1.742,0.268-2.334,0.804
			c-0.594,0.535-0.97,1.249-1.127,2.139l-0.094,0.535l-6.158-1.177l0.094-0.534c0.391-2.211,1.558-3.977,3.502-5.296
			c1.944-1.318,4.307-1.978,7.089-1.978c3.136,0,5.37,0.74,6.696,2.219c1.324,1.481,1.736,3.647,1.233,6.5l-3.979,22.571h-6.365
			L155.728,16.581z"/>
		<path fill="#FFFFFF" d="M165.964,37.548c-1.574-1.284-2.184-2.941-1.824-4.975l0.084-0.48l6.573-1.178l-0.094,0.535
			c-0.146,0.82,0.081,1.463,0.677,1.926c0.595,0.465,1.482,0.695,2.658,0.695c2.568,0,4.043-1.087,4.427-3.264
			c0.145-0.818,0.043-1.506-0.306-2.059c-0.348-0.552-0.907-1.07-1.679-1.552c-0.771-0.479-2.012-1.132-3.722-1.952
			c-2.33-1.139-3.965-2.441-4.9-3.904c-0.938-1.461-1.213-3.28-0.83-5.456c0.472-2.673,1.715-4.715,3.729-6.124
			c2.013-1.409,4.535-2.112,7.567-2.112c2.888,0,5.132,0.615,6.734,1.845c1.601,1.23,2.211,2.933,1.827,5.107l-0.095,0.535
			l-6.571,1.177l0.094-0.535c0.15-0.855-0.025-1.524-0.529-2.006c-0.504-0.48-1.326-0.721-2.467-0.721
			c-1.035,0-1.885,0.223-2.552,0.668c-0.667,0.446-1.073,1.079-1.218,1.899c-0.119,0.678-0.042,1.249,0.232,1.711
			c0.275,0.465,0.797,0.946,1.564,1.444c0.768,0.501,2.036,1.196,3.805,2.087c1.769,0.892,3.1,1.721,4.001,2.488
			c0.899,0.767,1.509,1.702,1.831,2.808s0.333,2.514,0.031,4.225c-0.521,2.961-1.847,5.216-3.975,6.767
			c-2.129,1.552-4.833,2.327-8.113,2.327C169.859,39.474,167.539,38.831,165.964,37.548z"/>
		<path fill="#FFFFFF" d="M189.998,37.146c-1.6-1.551-2.115-3.932-1.549-7.14c0.559-3.174,1.898-5.562,4.019-7.169
			c2.12-1.604,4.623-2.407,7.511-2.407c1.498,0,2.819,0.242,3.965,0.723c1.146,0.481,1.945,1.149,2.402,2.004l0.839-4.76
			c0.629-3.565-0.627-5.348-3.765-5.348c-1.604,0-2.848,0.374-3.728,1.123c-0.882,0.75-1.438,1.784-1.671,3.102l-0.113,0.643
			l-6.139-1.284l0.094-0.535c0.465-2.638,1.865-4.707,4.197-6.204c2.332-1.498,5.156-2.247,8.473-2.247
			c2.852,0,5.081,0.606,6.687,1.819c1.551-1.32,3.237-1.979,5.056-1.979c0.856,0,1.556,0.071,2.103,0.213l-0.935,5.295
			c-0.486-0.071-1.069-0.107-1.746-0.107c-0.714,0-1.41,0.107-2.09,0.322c0.344,1.284,0.35,2.87,0.018,4.759l-3.698,20.967h-6.364
			l1.132-6.419c0.346-1.96,0.148-3.573-0.591-4.841c-0.74-1.266-2.107-1.898-4.105-1.898c-1.318,0-2.457,0.331-3.408,0.99
			c-0.957,0.66-1.569,1.757-1.839,3.289c-0.491,2.782,0.888,4.172,4.132,4.172c0.643,0,1.258-0.053,1.847-0.16l-0.915,5.188
			c-0.738,0.142-1.731,0.214-2.979,0.214C193.875,39.474,191.595,38.698,189.998,37.146z"/>
		<path fill="#FFFFFF" d="M229.703,16.581c0.402-2.283-0.432-3.425-2.5-3.425c-0.963,0-1.74,0.268-2.334,0.804
			c-0.595,0.535-0.969,1.249-1.126,2.139l-0.095,0.535l-6.157-1.177l0.095-0.534c0.39-2.211,1.557-3.977,3.5-5.296
			c1.945-1.318,4.308-1.978,7.088-1.978c3.139,0,5.371,0.74,6.697,2.219c1.326,1.481,1.738,3.647,1.234,6.5l-3.979,22.571h-6.366
			L229.703,16.581z"/>
		<path fill="#FFFFFF" d="M239.937,37.548c-1.573-1.284-2.181-2.941-1.822-4.975l0.084-0.48l6.572-1.178l-0.094,0.535
			c-0.145,0.82,0.08,1.463,0.677,1.926c0.597,0.465,1.481,0.695,2.658,0.695c2.566,0,4.043-1.087,4.428-3.264
			c0.144-0.818,0.04-1.506-0.307-2.059c-0.349-0.552-0.907-1.07-1.678-1.552c-0.772-0.479-2.014-1.132-3.721-1.952
			c-2.331-1.139-3.966-2.441-4.903-3.904c-0.937-1.461-1.213-3.28-0.828-5.456c0.472-2.673,1.713-4.715,3.729-6.124
			c2.012-1.409,4.535-2.112,7.564-2.112c2.889,0,5.134,0.615,6.736,1.845c1.601,1.23,2.211,2.933,1.827,5.107l-0.095,0.535
			l-6.572,1.177l0.094-0.535c0.151-0.855-0.025-1.524-0.529-2.006c-0.503-0.48-1.326-0.721-2.467-0.721
			c-1.035,0-1.885,0.223-2.552,0.668c-0.666,0.446-1.073,1.079-1.217,1.899c-0.12,0.678-0.044,1.249,0.233,1.711
			c0.273,0.465,0.797,0.946,1.564,1.444c0.768,0.501,2.035,1.196,3.804,2.087c1.769,0.892,3.103,1.721,4.001,2.488
			s1.509,1.702,1.832,2.808c0.32,1.105,0.331,2.514,0.029,4.225c-0.521,2.961-1.847,5.216-3.975,6.767
			c-2.127,1.552-4.832,2.327-8.112,2.327C243.832,39.474,241.511,38.831,239.937,37.548z"/>
	</g>
	<path fill="#FFFFFF" d="M26.123,23.929c-0.678-0.41-8.595-5.203-8.595-5.203c-0.44-0.266-0.75-0.687-0.873-1.188
		c-0.037-0.153-0.057-0.309-0.057-0.463c0-0.349,0.095-0.69,0.28-0.994c0.266-0.442,0.688-0.752,1.188-0.875
		c0.5-0.123,1.019-0.044,1.459,0.222l2.833,1.715c0.729,0.442,1.679,0.209,2.119-0.519c0.152-0.251,0.225-0.527,0.225-0.8
		c0-0.522-0.266-1.031-0.746-1.323l-7.333-4.438c-0.377-0.228-0.835-0.282-1.258-0.153c0,0-9.318,2.896-12.278,3.817v-2.024
		c1.338-0.766,13.304-7.603,14.65-8.373c1.375,0.82,17.203,10.256,18.542,11.054v9.544H26.123z M36.28,33.966v2.693
		c-1.883,0.538-13.86,3.96-14.645,4.184c-0.833-0.262-14.224-4.491-14.224-4.491c-0.15-0.048-0.307-0.071-0.466-0.071H3.087v-9.265
		h18.139c1.065,0,1.932,0.868,1.932,1.931c0,1.063-0.867,1.932-1.93,1.932h-4.246c-0.853,0-1.545,0.689-1.545,1.543
		c0,0.852,0.692,1.545,1.545,1.545H36.28z M37.825,27.016c0.852,0,1.544-0.69,1.544-1.542V13.508c0-0.544-0.288-1.047-0.754-1.325
		L18.545,0.217c-0.479-0.284-1.075-0.29-1.557-0.015L0.776,9.465C0.297,9.741,0,10.251,0,10.806v8.877h4.631v4.245H1.545
		C0.69,23.929,0,24.621,0,25.474v12.35c0,0.408,0.163,0.802,0.451,1.094c0.29,0.289,0.683,0.449,1.094,0.449h5.165
		c0.439,0.141,14.439,4.561,14.439,4.561c0.288,0.094,0.597,0.098,0.89,0.014l16.209-4.632c0.663-0.189,1.121-0.796,1.121-1.485
		v-5.402c0-0.41-0.163-0.803-0.453-1.092s-0.683-0.451-1.092-0.451h-3.087v-3.862H37.825z"/>
	<g>
		<path fill="#FFFFFF" d="M55.124,14.53c0-1.398,1.888-1.972,3.251-1.972c1.739,0,3.021,0.651,3.999,1.894l3.403-2.779
			c-1.658-2.048-4.558-2.814-7.278-2.814c-4.125,0-8.211,1.85-8.211,5.975c0,7.05,11.454,4.042,11.454,7.856
			c0,1.46-2.343,1.525-3.842,1.525h-2.254v-3.449h-4.699v7.022h6.969V27.78c5.163-0.045,8.504-1.139,8.504-5.439
			C66.42,15.134,55.124,17.832,55.124,14.53"/>
		<path fill="#FFFFFF" d="M77.976,8.858c-0.092,0-8.412,0.209-8.823,6.574l-0.018,0.274h4.591l0.128-0.346
			c0.246-0.721,0.888-2.634,3.966-2.634c1.401,0,2.532,0.439,3.402,1.316c1.032,1.047,1.59,2.671,1.553,4.57
			c0,1.699-0.489,5.648-5.062,5.703c-1.176,0.021-2.159-0.352-2.856-1.082c-0.686-0.726-0.925-1.604-0.943-2.274
			c0.474,0.005,3.725,0.047,3.725,0.047v-3.467h-8.787v0.26c0,6.742,3.03,10.231,9.01,10.394c2.905,0.096,5.266-0.717,6.994-2.43
			c2.343-2.313,2.908-5.674,2.873-7.287C87.632,12.853,83.521,8.811,77.976,8.858"/>
		<path fill="#FFFFFF" d="M108.514,7.487h-5.3c0,0-0.966,1.338-1.139,1.57c-0.895-0.199-1.329-0.199-2.541-0.199
			c-5.741-0.142-9.15,2.111-9.357,6.185l-0.017,0.285l4.988-0.058l0.03-0.232c0.187-1.944,0.943-3.001,4.355-3.001
			c0.926,0,3.083,0.241,3.151,2.478c0.044,1.553-2.007,1.917-4.491,2.196l-0.555,0.052c-2.602,0.2-7.462,0.589-7.462,6.014
			c0,1.12,0.687,2.854,2.186,4.027c1.28,0.996,3.64,1.979,7.635,0.98l0.243-0.055L99.7,24.233l-0.275,0.068
			c-1.854,0.391-3.133,0.303-3.823-0.253c-0.424-0.34-0.626-0.863-0.626-1.59c0-1.978,1.699-2.265,4.294-2.468
			c1.366-0.109,2.647-0.232,3.415-0.841v8.638h5.001V13.873c0-1.264-0.473-2.314-1.302-3.111
			C106.561,10.491,108.514,7.487,108.514,7.487"/>
		<polygon fill="#FFFFFF" points="64.422,30.105 66.462,30.105 66.462,33.56 70.426,33.56 70.426,30.105 72.466,30.105 
			72.466,39.366 70.426,39.366 70.426,35.364 66.462,35.364 66.462,39.366 64.422,39.366 		"/>
		<path fill="#FFFFFF" d="M79.384,37.64h1.833c0.641,0,1.36-0.275,1.36-1.086c0-0.877-0.977-1.02-1.647-1.02h-1.545V37.64z
			 M79.384,33.806h1.482c0.626,0,1.281-0.263,1.281-1.008c0-0.771-0.733-0.967-1.375-0.967h-1.388V33.806z M77.346,30.105h3.451
			c1.625,0,3.393,0.339,3.393,2.354c0,1.035-0.642,1.739-1.597,2.043v0.024c1.216,0.16,2.027,1.059,2.027,2.264
			c0,1.936-1.832,2.576-3.48,2.576h-3.793V30.105z"/>
		<path fill="#FFFFFF" d="M88.349,32.798l-1.125,2.879h2.265L88.349,32.798z M87.562,30.105h1.689l4.032,9.261h-2.305l-0.795-1.961
			h-3.601l-0.771,1.961h-2.249L87.562,30.105z"/>
		<polygon fill="#FFFFFF" points="92.901,30.105 95.679,30.105 99.614,36.544 99.643,36.544 99.643,30.105 101.684,30.105 
			101.684,39.366 99.013,39.366 94.973,32.774 94.944,32.774 94.944,39.366 92.901,39.366 		"/>
		<polygon fill="#FFFFFF" points="99.849,30.105 101.893,30.105 101.893,33.95 105.487,30.105 108.159,30.105 104.038,34.408 
			108.514,39.366 105.661,39.366 101.893,34.97 101.893,39.366 99.849,39.366 		"/>
		<path fill="#FFFFFF" d="M57.592,35.895c-0.008,0.219-0.073,0.784-0.543,1.267c-0.397,0.402-0.954,0.607-1.612,0.602
			c-2.542-0.026-2.82-2.166-2.82-3.084c-0.013-1.018,0.293-1.891,0.864-2.457c0.49-0.477,1.129-0.72,1.901-0.72
			c1.726,0,2.096,1.056,2.232,1.45c0,0,0.017,0.045,0.033,0.087h2.172c-0.22-3.149-4.472-3.245-4.513-3.245
			c-2.853-0.02-4.963,2.009-5.021,4.818c-0.01,0.816,0.286,2.5,1.479,3.648c0.881,0.849,2.09,1.257,3.596,1.209
			c3.06-0.08,4.617-1.826,4.618-5.198h-4.355v1.495c0.252-0.004,1.972-0.023,1.972-0.023L57.592,35.895z"/>
	</g>
</g>
</svg>
