<?xml version="1.0" encoding="utf-8"?>
<!-- Generator: Adobe Illustrator 16.0.0, SVG Export Plug-In . SVG Version: 6.00 Build 0)  -->
<!DOCTYPE svg PUBLIC "-//W3C//DTD SVG 1.1//EN" "http://www.w3.org/Graphics/SVG/1.1/DTD/svg11.dtd">
<svg version="1.1" id="Layer_1" xmlns="http://www.w3.org/2000/svg" xmlns:xlink="http://www.w3.org/1999/xlink" x="0px" y="0px"
	 width="248.023px" height="33.906px" viewBox="0 0 248.023 33.906" enable-background="new 0 0 248.023 33.906"
	 xml:space="preserve">
<g>
	<path fill="#FFFFFF" d="M23.789,5.267c-0.9-8.272-18.792-6.799-20.194,4.409C3.196,12.875,0,33.705,0,33.705h4.597
		c3.398,0,3.398-2.795,3.798-5.207c0.41-2.402,0.802-5,0.802-5s5.396,9.006,6.599,10.006s5.998,0.402,6.196-5.807
		c-0.198-2.21-4.396-7.803-4.396-7.803S25.191,18.087,23.789,5.267 M15.602,7.987L14.61,15.74c-0.147,1.169-1.125,2.109-2.181,2.109
		c-1.052,0-1.791-0.94-1.65-2.109l0.992-7.764c0.147-1.159,1.121-2.105,2.193-2.105C15.015,5.871,15.753,6.817,15.602,7.987"/>
	<path fill="#FFFFFF" d="M23.789,33.705c0,0,3.602-27.027,3.81-29.237c0.591-4.199,8.202-6.995,8.794,0l-1.807,12.816h4.207
		c0,0,1.236-10.238,1.793-13.008c0.812-4.008,9.202-6.213,8.794,1.193c0,0-2.8,21.628-3.187,24.836
		c-0.403,4.995-9.197,4.597-8.999,0l1-9.021l-4.204-0.201c0,0-0.799,6.612-1.201,8.809c-0.401,2.218-3.406,3.812-5.002,3.812H23.789
		z"/>
	<polygon fill="#EB0028" points="103.609,16.896 88.392,32.11 73.182,16.896 88.392,1.674 	"/>
	<path fill="#FFFFFF" d="M69.183,1.667C65.839-0.62,60.776,0.29,57.982,2.064c-2.2,1.413-4.791,3.406-5.797,8.02l-3.604,23.621
		h13.209c2.985,0,13.388-6.604,7.19-17.419C68.981,16.285,77.376,7.275,69.183,1.667 M62.79,19.951l-1.106,6.84
		c-0.169,1.039-1.26,1.869-2.453,1.869c-1.189,0-2.024-0.834-1.855-1.869l1.106-6.84c0.167-1.027,1.272-1.863,2.451-1.863
		C62.134,18.087,62.952,18.923,62.79,19.951 M64.786,7.492l-1.1,5.934c-0.174,0.898-1.271,1.62-2.453,1.614
		c-1.195,0-2.026-0.724-1.856-1.614l1.104-5.934c0.172-0.903,1.261-1.621,2.457-1.621C64.126,5.871,64.95,6.589,64.786,7.492"/>
	<g>
		<path fill="#FFFFFF" d="M121.336,26.843c0,2.102-0.815,3.803-2.448,5.105c-1.634,1.303-3.686,1.957-6.154,1.957
			c-2.814,0-5.311-0.73-7.487-2.191l1.592-2.748c1.78,1.273,3.705,1.91,5.775,1.91c1.301,0,2.402-0.291,3.307-0.875
			c1.088-0.662,1.634-1.594,1.634-2.787c0-1.541-0.983-2.961-2.948-4.264c-1.807-1.113-3.625-2.242-5.458-3.385
			c-1.964-1.564-2.948-3.491-2.948-5.775c0-1.937,0.704-3.545,2.112-4.819c1.406-1.273,3.332-1.912,5.774-1.912
			c2.336,0,4.354,0.438,6.055,1.314l-0.041,3.505c-1.857-1.195-3.81-1.792-5.854-1.792c-1.301,0-2.349,0.267-3.146,0.797
			c-0.875,0.586-1.313,1.424-1.313,2.513c0,1.491,0.996,2.873,2.987,4.149c1.857,1.17,3.717,2.328,5.577,3.47
			C120.34,22.642,121.336,24.583,121.336,26.843z"/>
		<path fill="#FFFFFF" d="M139.06,24.824h-12.067c0,1.715,0.529,3.152,1.591,4.313c1.062,1.161,2.512,1.739,4.344,1.739
			c1.566,0,3.093-0.424,4.579-1.274l0.996,2.351c-1.727,1.303-3.811,1.953-6.253,1.953c-2.894,0-5.15-1.023-6.771-3.068
			c-1.46-1.83-2.19-4.168-2.19-7.01c0-2.761,0.729-5.058,2.19-6.891c1.461-1.831,3.387-2.748,5.774-2.748
			c2.441,0,4.354,0.883,5.736,2.648c1.38,1.766,2.07,4.124,2.07,7.071V24.824z M135.315,22.076c0-1.354-0.343-2.496-1.03-3.426
			c-0.768-1.062-1.784-1.592-3.054-1.592c-1.269,0-2.292,0.484-3.071,1.453c-0.779,0.968-1.168,2.158-1.168,3.564H135.315z"/>
		<path fill="#FFFFFF" d="M156.065,31.994c-1.886,1.273-3.957,1.912-6.213,1.912c-2.815,0-5.031-0.957-6.651-2.869
			c-1.514-1.777-2.271-4.035-2.271-6.77c0-2.814,0.821-5.166,2.47-7.051c1.753-2.018,4.089-3.027,7.009-3.027
			c1.886,0,3.545,0.413,4.979,1.236l-0.039,3.146c-1.402-0.956-3.018-1.434-4.843-1.434c-1.799,0-3.248,0.651-4.346,1.95
			c-1.097,1.305-1.646,2.963-1.646,4.979c0,2.019,0.515,3.651,1.548,4.899c1.084,1.328,2.552,1.99,4.406,1.99
			c1.559,0,3.096-0.463,4.603-1.393L156.065,31.994z"/>
		<path fill="#FFFFFF" d="M173.349,33.507h-2.868l-0.755-1.912c-1.779,1.539-3.783,2.311-6.014,2.311
			c-1.567,0-2.868-0.451-3.903-1.354c-1.354-1.17-2.031-3-2.031-5.496V14.667h3.584v12.108c0,2.789,1.176,4.182,3.526,4.182
			c1.743,0,3.263-0.729,4.559-2.19V14.667h3.504v11.831C172.95,30.425,173.083,32.763,173.349,33.507z"/>
		<path fill="#FFFFFF" d="M187.886,14.828l-1.387,3.265c-0.555-0.291-1.201-0.438-1.94-0.438c-1.293,0-2.602,0.689-3.921,2.07
			v13.781h-3.583v-18.84h2.945l0.438,2.111c1.886-1.725,3.65-2.589,5.297-2.589C186.558,14.189,187.275,14.403,187.886,14.828z"/>
		<path fill="#FFFFFF" d="M191.271,6.423c0.638,0,1.188,0.227,1.651,0.677c0.464,0.452,0.697,0.996,0.697,1.632
			c0,0.638-0.233,1.19-0.697,1.654c-0.465,0.465-1.015,0.697-1.651,0.697c-0.664,0-1.223-0.227-1.672-0.678
			c-0.453-0.451-0.68-1.008-0.68-1.673c0-0.636,0.227-1.181,0.68-1.632C190.05,6.65,190.607,6.423,191.271,6.423z M193.024,33.507
			h-3.506v-18.84h3.506V33.507z"/>
		<path fill="#FFFFFF" d="M208.436,31.994c-1.751,1.273-3.559,1.912-5.416,1.912c-2.841,0-4.263-1.382-4.263-4.145V17.496h-3.146
			v-2.829h3.146v-4.221l3.587-1.116v5.337h5.773l-1.146,2.829h-4.627V28.6c0,1.519,0.604,2.276,1.818,2.276
			c1.058,0,2.136-0.424,3.244-1.274L208.436,31.994z"/>
		<path fill="#FFFFFF" d="M212.618,6.423c0.638,0,1.188,0.227,1.652,0.677c0.465,0.452,0.696,0.996,0.696,1.632
			c0,0.638-0.231,1.19-0.696,1.654c-0.464,0.465-1.016,0.697-1.652,0.697c-0.664,0-1.223-0.227-1.675-0.678
			c-0.449-0.451-0.676-1.008-0.676-1.673c0-0.636,0.227-1.181,0.676-1.632C211.396,6.65,211.954,6.423,212.618,6.423z
			 M214.37,33.507h-3.505v-18.84h3.505V33.507z"/>
		<path fill="#FFFFFF" d="M233.527,24.824h-12.068c0,1.715,0.53,3.152,1.594,4.313c1.062,1.161,2.51,1.739,4.342,1.739
			c1.566,0,3.094-0.424,4.582-1.274l0.995,2.351c-1.729,1.303-3.812,1.953-6.255,1.953c-2.894,0-5.15-1.023-6.77-3.068
			c-1.462-1.83-2.191-4.168-2.191-7.01c0-2.761,0.729-5.058,2.191-6.891c1.459-1.831,3.384-2.748,5.773-2.748
			c2.441,0,4.354,0.883,5.734,2.648c1.381,1.766,2.071,4.124,2.071,7.071L233.527,24.824L233.527,24.824z M229.784,22.076
			c0-1.354-0.344-2.496-1.031-3.426c-0.768-1.062-1.783-1.592-3.054-1.592c-1.267,0-2.291,0.484-3.071,1.453
			c-0.778,0.968-1.169,2.158-1.169,3.564H229.784z"/>
		<path fill="#FFFFFF" d="M248.023,28.25c0,1.885-0.73,3.332-2.189,4.342c-1.273,0.875-2.975,1.314-5.099,1.314
			c-2.311,0-4.326-0.519-6.053-1.555l1.277-2.668c1.468,0.98,3.054,1.473,4.762,1.473c1.118,0,2.019-0.224,2.696-0.678
			c0.681-0.449,1.021-1.075,1.021-1.87c0-1.114-0.747-2.045-2.241-2.789c-1.386-0.69-2.774-1.379-4.161-2.071
			c-1.494-1.061-2.241-2.521-2.241-4.379c0-1.515,0.563-2.756,1.692-3.727c1.129-0.967,2.755-1.453,4.881-1.453
			c1.804,0,3.465,0.332,4.979,0.997v3.026c-1.832-0.771-3.453-1.154-4.86-1.154c-2.15,0-3.225,0.717-3.225,2.15
			c0,1.01,0.756,1.885,2.269,2.627c2.736,1.355,4.143,2.058,4.223,2.11C247.269,25.009,248.023,26.443,248.023,28.25z"/>
	</g>
</g>
</svg>
