<?xml version="1.0" encoding="utf-8"?>
<!-- Generator: Adobe Illustrator 16.0.0, SVG Export Plug-In . SVG Version: 6.00 Build 0)  -->
<!DOCTYPE svg PUBLIC "-//W3C//DTD SVG 1.1//EN" "http://www.w3.org/Graphics/SVG/1.1/DTD/svg11.dtd">
<svg version="1.1" id="Layer_1" xmlns="http://www.w3.org/2000/svg" xmlns:xlink="http://www.w3.org/1999/xlink" x="0px" y="0px"
	 width="532.283px" height="40px" viewBox="0 0 532.283 40" enable-background="new 0 0 532.283 40" xml:space="preserve">
<g>
	<path fill="#FFFFFF" d="M21.469,23.504c-0.557-0.337-7.063-4.276-7.063-4.276c-0.362-0.218-0.617-0.564-0.718-0.976
		c-0.03-0.125-0.047-0.253-0.047-0.38c0-0.286,0.078-0.567,0.229-0.816c0.219-0.363,0.566-0.619,0.978-0.719
		c0.41-0.102,0.837-0.037,1.199,0.182l2.329,1.41c0.599,0.363,1.38,0.171,1.742-0.427c0.125-0.207,0.184-0.434,0.184-0.658
		c0-0.43-0.219-0.847-0.613-1.087l-6.027-3.648c-0.311-0.188-0.687-0.232-1.034-0.125c0,0-7.658,2.38-10.091,3.138v-1.664
		c1.1-0.629,10.935-6.248,12.041-6.881c1.13,0.674,14.139,8.43,15.24,9.084v7.845H21.469z M29.818,31.753v2.214
		c-1.547,0.441-11.391,3.254-12.036,3.438c-0.685-0.214-11.69-3.69-11.69-3.69c-0.123-0.04-0.253-0.059-0.383-0.059H2.538v-7.614
		h14.908c0.875,0,1.588,0.713,1.588,1.587s-0.712,1.587-1.586,1.587h-3.49c-0.701,0-1.27,0.567-1.27,1.269
		c0,0.699,0.569,1.27,1.27,1.27H29.818z M31.087,26.041c0.701,0,1.27-0.567,1.27-1.268v-9.834c0-0.447-0.236-0.861-0.62-1.089
		L15.242,4.015c-0.394-0.233-0.884-0.238-1.28-0.012L0.638,11.617C0.244,11.843,0,12.263,0,12.719v7.296h3.807v3.489H1.27
		c-0.702,0-1.27,0.568-1.27,1.27v10.149c0,0.336,0.134,0.659,0.371,0.899c0.239,0.237,0.562,0.369,0.899,0.369h4.245
		c0.361,0.115,11.868,3.749,11.868,3.749c0.236,0.075,0.491,0.079,0.73,0.01l13.323-3.807c0.545-0.155,0.921-0.653,0.921-1.221
		v-4.439c0-0.337-0.134-0.66-0.373-0.897c-0.237-0.238-0.561-0.371-0.897-0.371H28.55v-3.174H31.087z"/>
	<g>
		<g>
			<path fill="#FFFFFF" d="M182.818,18.596c0-1.765,1.857-2.499,3.424-2.499c2.002,0,3.475,0.828,4.599,2.395l3.918-3.521
				c-1.914-2.59-5.238-3.568-8.372-3.568c-4.744,0-9.44,2.346-9.44,7.577c0,8.958,12.669,5.139,12.669,9.985
				c0,1.858-2.2,2.69-3.912,2.69c-2.495,0-4.061-1.22-5.581-2.887l-3.912,3.674c2.393,2.689,5.526,3.62,9.147,3.62
				c4.797,0,10.131-1.958,10.131-7.539C195.491,19.373,182.818,22.8,182.818,18.596z"/>
			<path fill="#FFFFFF" d="M239.664,11.338c-5.431,0-9.101,2.493-10.174,7.977l5.77,1.372c0.396-2.257,1.961-3.772,4.111-3.772
				c3.52,0,4.552,2.542,4.552,6.707v11.865h6.16V21.808C250.083,16.281,246.611,11.338,239.664,11.338z"/>
			<path fill="#FFFFFF" d="M212.633,11.363c-0.113,0-10.74,0.276-11.259,8.397l-0.021,0.36h5.867l0.158-0.447
				c0.307-0.919,1.129-3.369,5.064-3.369c1.785,0,3.247,0.567,4.348,1.687c1.316,1.337,2.024,3.408,1.986,5.832
				c0,2.173-0.623,7.218-6.466,7.292c-1.497,0.019-2.761-0.458-3.648-1.388c-0.873-0.919-1.179-2.05-1.206-2.901
				c0.607,0,4.754,0.059,4.754,0.059v-4.434h-11.222v0.34c0,8.593,3.874,13.064,11.508,13.271c3.723,0.12,6.721-0.916,8.935-3.104
				c2.983-2.945,3.715-7.238,3.674-9.309C224.969,16.467,219.724,11.304,212.633,11.363z"/>
			<path fill="#FFFFFF" d="M268.735,11.25c-7.083,0-12.035,5.04-12.035,12.248v11.988h5.828v-7.591h7.093v-4.987h-7.036
				c0.251-2.847,1.949-5.836,6.15-5.836c4.582,0,6.209,3.549,6.209,6.599v11.815h5.829V23.498
				C280.773,16.29,275.822,11.25,268.735,11.25z"/>
			<path fill="#FFFFFF" d="M295.337,11.338c-5.438,0-9.108,2.493-10.181,7.977l5.772,1.372c0.394-2.257,1.961-3.772,4.104-3.772
				c3.524,0,4.556,2.542,4.556,6.707v11.865h6.168V21.808C305.757,16.281,302.277,11.338,295.337,11.338z"/>
			<path fill="#FFFFFF" d="M83.024,24.732c0,3.157-1.532,6.019-5.428,6.019c-4.146,0-4.342-4.347-4.342-6.957V11.802h-5.923v14.952
				c0,4.838,2.277,9.327,8.635,9.327c3.947,0,6.166-2.025,7.257-4.392h0.095v3.797h5.626V11.802h-5.92V24.732z"/>
			<path fill="#FFFFFF" d="M47.422,18.55c0-1.769,2.404-2.506,4.143-2.506c2.229,0,3.857,0.835,5.108,2.405l4.344-3.535
				c-2.116-2.606-5.809-3.591-9.29-3.591c-5.269,0-10.478,2.361-10.478,7.617c0,8.998,14.622,5.158,14.622,10.03
				c0,1.87-3,1.953-4.903,1.953h-2.879v-4.405h-5.996v8.969h0.255l0,0h8.642V35.47c6.58-0.053,10.844-1.455,10.844-6.946
				C61.833,19.333,47.422,22.775,47.422,18.55z"/>
			<path fill="#FFFFFF" d="M132.578,11.25c-7.087,0-12.033,5.04-12.033,12.248v11.988h5.825v-7.591h7.093v-4.987h-7.04
				c0.251-2.847,1.954-5.836,6.155-5.836c4.579,0,6.202,3.549,6.202,6.599v11.815h5.831V23.498
				C144.61,16.29,139.662,11.25,132.578,11.25z"/>
			<path fill="#FFFFFF" d="M103.506,11.338c-5.434,0-9.103,2.493-10.181,7.977l5.779,1.372c0.391-2.257,1.955-3.772,4.11-3.772
				c3.524,0,4.547,2.542,4.547,6.707v11.865h6.167V21.808C113.928,16.281,110.45,11.338,103.506,11.338z"/>
			<path fill="#FFFFFF" d="M159.175,11.338c-5.43,0-9.099,2.493-10.18,7.977l5.776,1.372c0.39-2.257,1.958-3.772,4.106-3.772
				c3.528,0,4.551,2.542,4.551,6.707v11.865h6.163V21.808C169.592,16.281,166.126,11.338,159.175,11.338z"/>
			<path fill="#FFFFFF" d="M353.807,9.579c0,0-1.237,1.701-1.447,2c-1.147-0.25-1.705-0.26-3.246-0.26
				c-7.314-0.177-11.679,2.706-11.941,7.9l-0.018,0.359l6.366-0.064l0.032-0.304c0.248-2.483,1.207-3.832,5.561-3.832
				c1.187,0,3.943,0.305,4.018,3.167c0.054,1.982-2.557,2.445-5.722,2.797c0.004,0-0.713,0.061-0.713,0.061
				c-3.324,0.266-9.524,0.761-9.524,7.68c0,1.421,0.872,3.638,2.796,5.138c1.628,1.274,4.636,2.521,9.736,1.248l0.304-0.071
				l-0.678-4.451l-0.354,0.074c-2.362,0.501-4.002,0.399-4.883-0.311c-0.534-0.436-0.794-1.101-0.794-2.033
				c0-2.519,2.166-2.878,5.479-3.144c1.74-0.143,3.367-0.305,4.352-1.077c0,1.471,0,11.024,0,11.024h6.375V17.726
				c0-1.617-0.596-2.955-1.655-3.969c0.226-0.348,2.717-4.178,2.717-4.178H353.807z"/>
			<g>
				<path fill="#FFFFFF" d="M490.317,26.625h-4.77c-0.002,0.099-0.018,0.187-0.018,0.279c0,4.854,4.138,6.697,8.157,6.697h4.231
					v-4.061h-2.5C492.13,29.541,490.547,28.571,490.317,26.625z"/>
				<path fill="#FFFFFF" d="M490.317,13.896h-4.77c-0.002,0.092-0.018,0.186-0.018,0.28c0,4.854,4.138,6.692,8.157,6.692h4.231
					v-4.056h-2.5C492.13,16.811,490.547,15.837,490.317,13.896z"/>
			</g>
			<path fill="#FFFFFF" d="M527.855,0c-4.221,0-8.552,1.938-8.552,7.017c0,0.098,0.021,0.191,0.021,0.3h4.997
				c0.244-2.042,1.903-3.058,5.356-3.058h2.605V0H527.855z"/>
			<path fill="#FFFFFF" d="M525.574,14.284c0-0.04,0-2.379,0-2.379h-6.462v1.652c0,1.135-0.55,2.275-1.474,3.048
				c-1.03,0.872-2.277,1.072-3.792,1.072c-1.514,0-2.413,0.03-4.058,0.03v-5.802h-6.481v23.582h6.481V22.609
				c1.645,0,2.544,0.028,4.058,0.028c1.515,0,2.762,0.202,3.792,1.072c0.924,0.775,1.474,1.912,1.474,3.048v8.729h6.462
				c0,0,0-9.418,0-9.455c0-1.747-0.723-3.478-2.042-4.863c-0.351-0.374-0.754-0.708-1.177-1.009
				c0.423-0.305,0.826-0.635,1.177-1.012C524.851,17.76,525.574,16.029,525.574,14.284z"/>
			<path fill="#FFFFFF" d="M469.495,11.338c-5.429,0-9.104,2.493-10.175,7.977l5.772,1.372c0.396-2.257,1.96-3.772,4.111-3.772
				c3.522,0,4.553,2.542,4.553,6.707v11.865h6.166V21.808C479.922,16.281,476.444,11.338,469.495,11.338z"/>
			<path fill="#FFFFFF" d="M318.983,18.596c0-1.765,1.855-2.499,3.42-2.499c2.006,0,3.473,0.828,4.604,2.395l3.908-3.521
				c-1.906-2.59-5.235-3.568-8.362-3.568c-4.746,0-9.449,2.346-9.449,7.577c0,8.958,12.684,5.139,12.684,9.985
				c0,1.858-2.206,2.69-3.923,2.69c-2.492,0-4.058-1.22-5.575-2.887l-3.912,3.674c2.39,2.689,5.525,3.62,9.152,3.62
				c4.791,0,10.122-1.958,10.122-7.539C331.652,19.373,318.983,22.8,318.983,18.596z"/>
			<path fill="#FFFFFF" d="M442.217,18.531c0-1.765,1.865-2.502,3.441-2.502c2.009,0,3.477,0.831,4.615,2.404l3.926-3.536
				c-1.917-2.6-5.255-3.583-8.396-3.583c-4.763,0-9.478,2.359-9.478,7.611c0,8.984,12.72,5.155,12.72,10.016
				c0,1.863-2.212,2.704-3.928,2.704c-2.505,0-4.077-1.229-5.604-2.901l-3.92,3.689c2.403,2.698,5.54,3.629,9.179,3.629
				c4.815,0,10.162-1.965,10.162-7.569C454.935,19.319,442.217,22.757,442.217,18.531z"/>
			<rect x="393.925" y="11.905" fill="#FFFFFF" width="6.041" height="23.582"/>
			<path fill="#FFFFFF" d="M418.05,11.25c-7.082,0-12.023,5.04-12.023,12.248v11.988h5.827v-7.591h7.091v-4.987H411.9
				c0.263-2.847,1.955-5.836,6.15-5.836c4.589,0,6.212,3.554,6.212,6.599v11.815h5.829V23.498
				C430.091,16.29,425.145,11.25,418.05,11.25z"/>
			<path fill="#FFFFFF" d="M371.941,17.549l3.94,13.388h1.275c2.176,0,4.418-1.958,4.358-7.026
				c-0.125-4.263-0.668-7.892-4.599-8.182c-1.756-0.166-2.603,0.29-2.603,0.29l-0.789-3.683c1.331-0.806,2.845-1.096,4.659-1.096
				c7.021,0,9.683,6.103,9.683,12.439c0,7.022-3.813,11.807-8.654,11.807h-7.807l-5.335-17.937H371.941z"/>
		</g>
	</g>
</g>
</svg>
