<?xml version="1.0" standalone="no"?>
<!DOCTYPE svg PUBLIC "-//W3C//DTD SVG 1.1//EN" "http://www.w3.org/Graphics/SVG/1.1/DTD/svg11.dtd" >
<svg xmlns="http://www.w3.org/2000/svg">
<metadata>Generated by IcoMoon</metadata>
<defs>
<font id="ico-tokiomarine" horiz-adv-x="1024">
<font-face units-per-em="1024" ascent="960" descent="-64" />
<missing-glyph horiz-adv-x="1024" />
<glyph unicode="&#x20;" horiz-adv-x="512" d="" />
<glyph unicode="&#xe900;" glyph-name="credit-card" d="M166.116 422.969h407.324c11.378 0 20.48 9.102 20.48 20.48s-9.102 20.48-20.48 20.48h-407.324c-11.378 0-20.48-9.102-20.48-20.48s9.102-20.48 20.48-20.48zM896.569 752.924h-769.138c-56.889 0-102.4-45.511-102.4-102.4v-405.049c0-56.889 45.511-102.4 102.4-102.4h769.138c56.889 0 102.4 45.511 102.4 102.4v405.049c0 56.889-45.511 102.4-102.4 102.4zM958.009 245.476c0-34.133-27.307-61.44-61.44-61.44h-769.138c-34.133 0-61.44 27.307-61.44 61.44v302.649h892.018v-302.649zM958.009 589.084h-892.018v61.44c0 34.133 27.307 61.44 61.44 61.44h769.138c34.133 0 61.44-27.307 61.44-61.44v-61.44zM166.116 343.324h118.329c11.378 0 20.48 9.102 20.48 20.48s-9.102 20.48-20.48 20.48h-118.329c-11.378 0-20.48-9.102-20.48-20.48s9.102-20.48 20.48-20.48z" />
<glyph unicode="&#xe901;" glyph-name="close" d="M572.416 447.957l439.125 439.168c16.683 16.597 16.683 43.605 0 60.331-16.683 16.683-43.691 16.683-60.331 0l-439.168-439.168-439.168 439.168c-16.683 16.683-43.691 16.683-60.331 0-16.683-16.725-16.683-43.691 0-60.331l439.125-439.168-439.125-439.168c-16.683-16.725-16.683-43.691 0-60.331 8.32-8.32 19.243-12.501 30.165-12.501s21.845 4.181 30.165 12.501l439.168 439.168 439.168-439.168c8.32-8.32 19.243-12.501 30.165-12.501s21.845 4.181 30.165 12.501c16.683 16.64 16.683 43.605 0 60.331l-439.125 439.168z" />
<glyph unicode="&#xe902;" glyph-name="user" d="M778.24 27.022h-737.28c-6.827 0-11.378 4.551-11.378 11.378 0 4.551 0 138.809 20.48 200.249 13.653 47.787 109.227 81.92 209.351 118.329 18.204 6.827 38.684 13.653 56.889 20.48v86.471c-22.756 9.102-81.92 45.511-81.92 129.707v81.92c0 2.276-2.276 6.827-2.276 11.378-6.827 29.582-22.756 84.196 4.551 109.227 11.378 11.378 27.307 15.929 47.787 13.653 18.204 40.96 84.196 56.889 138.809 56.889 65.991 0 138.809-18.204 152.462-65.991 11.378-45.511-11.378-91.022-22.756-116.053 0 0 0-2.276 0-2.276 18.204-6.827 27.307-29.582 27.307-50.062 0-22.756-11.378-45.511-31.858-50.062-2.276-75.093-29.582-106.951-40.96-118.329v-88.747c22.756-9.102 47.787-18.204 68.267-25.031 102.4-38.684 182.044-68.267 195.698-111.502 20.48-59.164 20.48-193.422 20.48-200.249-2.276-6.827-6.827-11.378-13.653-11.378zM52.338 49.778h714.524c0 34.133-4.551 134.258-20.48 179.769-11.378 34.133-95.573 65.991-182.044 97.849-25.031 9.102-50.062 18.204-77.369 29.582-4.551 2.276-6.827 6.827-6.827 11.378v102.4c0 4.551 2.276 6.827 4.551 9.102 0 0 36.409 25.031 36.409 113.778 0 6.827 4.551 11.378 11.378 11.378 15.929 0 18.204 20.48 18.204 29.582s-4.551 29.582-18.204 29.582c-6.827 0-11.378 4.551-11.378 11.378 0 4.551 2.276 9.102 6.827 20.48 11.378 22.756 31.858 63.716 22.756 100.124-6.827 29.582-61.44 50.062-129.707 50.062-63.716 0-113.778-20.48-118.329-50.062-2.276-6.827-6.827-9.102-13.653-9.102-18.204 4.551-31.858 2.276-38.684-4.551-15.929-18.204-4.551-68.267 2.276-88.747 2.276-9.102 4.551-13.653 4.551-18.204v-81.92c0-88.747 72.818-111.502 72.818-111.502 4.551-2.276 9.102-6.827 9.102-11.378v-102.4c0-4.551-2.276-9.102-6.827-11.378-20.48-6.827-43.236-15.929-63.716-22.756-86.471-31.858-184.32-65.991-195.698-102.4-15.929-47.787-20.48-147.911-20.48-182.044zM983.040 27.022h-102.4c-6.827 0-11.378 4.551-11.378 11.378s4.551 11.378 11.378 11.378h91.022c0 34.133-4.551 134.258-20.48 179.769-15.929 52.338-186.596 118.329-259.413 147.911-4.551 2.276-6.827 6.827-6.827 11.378v61.44c0 4.551 2.276 6.827 4.551 9.102 0 0 36.409 25.031 36.409 113.778 0 6.827 4.551 11.378 11.378 11.378 4.551 0 9.102 2.276 13.653 6.827s6.827 13.653 6.827 22.756c0 9.102-4.551 29.582-18.204 29.582-6.827 0-11.378 4.551-11.378 11.378 0 4.551 2.276 9.102 6.827 20.48 11.378 25.031 31.858 68.267 22.756 106.951-6.827 15.929-29.582 38.684-59.164 50.062-18.204 6.827-47.787 11.378-72.818-6.827-4.551-4.551-11.378-2.276-15.929 2.276s-2.276 11.378 2.276 15.929c27.307 18.204 61.44 20.48 95.573 9.102 34.133-13.653 63.716-40.96 70.542-65.991 11.378-45.511-11.378-95.573-22.756-120.604 0 0 0-2.276-2.276-2.276 18.204-6.827 27.307-29.582 27.307-50.062 0-13.653-2.276-25.031-9.102-34.133-4.551-9.102-13.653-13.653-20.48-15.929-2.276-75.093-29.582-106.951-40.96-118.329v-47.787c147.911-59.164 250.311-106.951 266.24-159.289 20.48-59.164 20.48-193.422 20.48-200.249-2.276-6.827-6.827-11.378-13.653-11.378z" />
<glyph unicode="&#xe903;" glyph-name="mobile" d="M691.769-20.764h-359.538c-50.062 0-91.022 40.96-91.022 91.022v755.484c0 50.062 40.96 91.022 91.022 91.022h359.538c50.062 0 91.022-40.96 91.022-91.022v-755.484c0-50.062-40.96-91.022-91.022-91.022zM332.231 894.009c-36.409 0-68.267-31.858-68.267-68.267v-755.484c0-36.409 31.858-68.267 68.267-68.267h359.538c36.409 0 68.267 31.858 68.267 68.267v755.484c0 36.409-31.858 68.267-68.267 68.267h-359.538zM771.413 734.72h-518.827c-6.827 0-11.378 4.551-11.378 11.378s4.551 11.378 11.378 11.378h518.827c6.827 0 11.378-4.551 11.378-11.378s-4.551-11.378-11.378-11.378zM771.413 138.524h-518.827c-6.827 0-11.378 4.551-11.378 11.378s4.551 11.378 11.378 11.378h518.827c6.827 0 11.378-4.551 11.378-11.378s-4.551-11.378-11.378-11.378zM612.124 58.88h-200.249c-6.827 0-11.378 4.551-11.378 11.378s4.551 11.378 11.378 11.378h200.249c6.827 0 11.378-4.551 11.378-11.378s-4.551-11.378-11.378-11.378zM512 793.884c-18.204 0-31.858 13.653-31.858 31.858s13.653 31.858 31.858 31.858c18.204 0 31.858-13.653 31.858-31.858s-13.653-31.858-31.858-31.858zM512 834.844c-4.551 0-9.102-4.551-9.102-9.102s4.551-9.102 9.102-9.102c4.551 0 9.102 4.551 9.102 9.102s-4.551 9.102-9.102 9.102z" />
<glyph unicode="&#xe904;" glyph-name="envelope-o" d="M917.049 127.147h-810.098c-40.96 0-72.818 31.858-72.818 72.818v486.969c0 40.96 31.858 72.818 72.818 72.818h812.373c40.96 0 72.818-31.858 72.818-72.818v-486.969c0-2.276 0-4.551-2.276-6.827-4.551-36.409-34.133-65.991-72.818-65.991zM106.951 736.996c-27.307 0-50.062-22.756-50.062-50.062v-486.969c0-27.307 22.756-50.062 50.062-50.062h810.098c27.307 0 50.062 22.756 50.062 50.062 0 2.276 0 4.551 2.276 6.827v480.142c0 27.307-22.756 50.062-50.062 50.062h-812.373zM512 350.151c-2.276 0-4.551 0-6.827 2.276l-343.609 223.004c-4.551 4.551-6.827 11.378-2.276 15.929 2.276 4.551 11.378 6.827 15.929 2.276l336.782-218.453 339.058 218.453c4.551 2.276 11.378 2.276 15.929-2.276s2.276-11.378-2.276-15.929l-345.884-223.004c-2.276-2.276-4.551-2.276-6.827-2.276zM168.391 268.231c-4.551 0-6.827 2.276-9.102 4.551-2.276 4.551-2.276 11.378 4.551 15.929l141.084 81.92c4.551 2.276 11.378 2.276 15.929-4.551 2.276-4.551 2.276-11.378-4.551-15.929l-141.084-81.92c-2.276 0-4.551 0-6.827 0zM857.884 268.231c-2.276 0-4.551 0-6.827 2.276l-141.084 81.92c-4.551 2.276-6.827 9.102-4.551 15.929 2.276 4.551 9.102 6.827 15.929 4.551l141.084-81.92c4.551-2.276 6.827-9.102 4.551-15.929-2.276-4.551-4.551-6.827-9.102-6.827z" />
<glyph unicode="&#xe905;" glyph-name="04" d="M512 454.827c-56.889 0-116.053 56.889-145.636 141.084-15.929 11.378-36.409 45.511-36.409 75.093 0 18.204 0 63.716 45.511 63.716 95.573 0 161.564 81.92 161.564 81.92 2.276 2.276 6.827 4.551 11.378 4.551s6.827-2.276 9.102-6.827c0 0 31.858-79.644 91.022-79.644 45.511 0 45.511-45.511 45.511-63.716 0-29.582-20.48-63.716-36.409-75.093-29.582-84.196-88.747-141.084-145.636-141.084zM380.018 614.116c2.276-2.276 4.551-4.551 6.827-6.827 25.031-75.093 77.369-129.707 125.156-129.707s100.124 52.338 125.156 129.707c0 2.276 4.551 6.827 6.827 6.827 6.827 4.551 27.307 31.858 27.307 56.889 0 27.307-4.551 40.96-22.756 40.96-56.889 0-91.022 50.062-104.676 77.369-25.031-25.031-84.196-77.369-168.391-77.369-18.204 0-22.756-13.653-22.756-40.96 0-25.031 20.48-52.338 27.307-56.889zM682.667 693.76c-6.827 0-11.378 4.551-11.378 11.378 0 120.604-59.164 193.422-159.289 193.422s-159.289-72.818-159.289-193.422c0-6.827-4.551-11.378-11.378-11.378s-11.378 4.551-11.378 11.378c0 134.258 68.267 216.178 182.044 216.178s182.044-81.92 182.044-216.178c0-6.827-4.551-11.378-11.378-11.378zM512-25.316c-38.684 0-234.382 2.276-279.893 52.338-45.511 4.551-141.084 13.653-141.084 79.644 0 118.329 75.093 273.067 284.444 320.853l4.551-22.756c-195.698-43.236-266.24-186.596-266.24-298.098 0-43.236 72.818-52.338 125.156-56.889 4.551 0 6.827-2.276 9.102-4.551 22.756-34.133 170.667-47.787 263.964-47.787 138.809 0 241.209 18.204 259.413 47.787 2.276 2.276 4.551 4.551 9.102 4.551 86.471 6.827 129.707 25.031 129.707 56.889 0 109.227-68.267 254.862-263.964 300.373l4.551 22.756c273.067-63.716 282.169-295.822 282.169-323.129 0-65.991-104.676-75.093-145.636-79.644-40.96-47.787-204.8-52.338-275.342-52.338zM238.933 27.022c-6.827 0-11.378 4.551-11.378 11.378v186.596c0 6.827 4.551 11.378 11.378 11.378s11.378-4.551 11.378-11.378v-186.596c0-6.827-4.551-11.378-11.378-11.378zM785.067 27.022c-6.827 0-11.378 4.551-11.378 11.378v186.596c0 6.827 4.551 11.378 11.378 11.378s11.378-4.551 11.378-11.378v-186.596c0-6.827-4.551-11.378-11.378-11.378zM425.529 281.884c0 0-2.276 0 0 0-6.827 0-9.102 4.551-11.378 6.827l-50.062 136.533c0 2.276 0 6.827 0 9.102l15.929 36.409c2.276 2.276 4.551 4.551 6.827 6.827 2.276 0 6.827 0 9.102 0l113.778-68.267 113.778 68.267c2.276 2.276 6.827 2.276 9.102 0 2.276 0 4.551-2.276 6.827-6.827l15.929-36.409c2.276-2.276 2.276-4.551 0-9.102l-47.787-136.533c-2.276-4.551-4.551-6.827-9.102-6.827s-9.102 0-11.378 4.551l-79.644 93.298-77.369-93.298c2.276-2.276-2.276-4.551-4.551-4.551zM530.204 393.387l65.991-77.369 40.96 113.778-9.102 20.48-97.849-56.889zM386.844 429.796l40.96-113.778 65.991 77.369-97.849 56.889-9.102-20.48zM512 263.68c-2.276 0-6.827 0-9.102 2.276l-52.338 52.338c-4.551 4.551-4.551 11.378 0 15.929s11.378 4.551 15.929 0l43.236-43.236 43.236 43.236c4.551 4.551 11.378 4.551 15.929 0s4.551-11.378 0-15.929l-52.338-52.338c2.276-2.276-2.276-2.276-4.551-2.276zM475.591-25.316c0 0 0 0 0 0-6.827 0-11.378 6.827-11.378 13.653l36.409 291.271c0 4.551 4.551 9.102 11.378 9.102v0c6.827 0 11.378-4.551 11.378-9.102l36.409-291.271c0-6.827-4.551-11.378-9.102-13.653-6.827 0-11.378 4.551-13.653 9.102l-25.031 202.524-25.031-200.249c0-6.827-6.827-11.378-11.378-11.378zM402.773 448c-2.276 0-2.276 0-4.551 0-6.827 2.276-9.102 9.102-6.827 13.653 4.551 9.102 6.827 22.756 6.827 36.409v34.133c0 6.827 4.551 11.378 11.378 11.378s11.378-4.551 11.378-11.378v-34.133c0-18.204-2.276-31.858-6.827-45.511-2.276-2.276-6.827-4.551-11.378-4.551zM621.227 448c-4.551 0-9.102 2.276-11.378 6.827-4.551 11.378-6.827 27.307-6.827 43.236v34.133c0 6.827 4.551 11.378 11.378 11.378s11.378-4.551 11.378-11.378v-34.133c0-13.653 2.276-25.031 6.827-34.133 2.276-6.827 0-11.378-6.827-15.929-2.276 0-2.276 0-4.551 0z" />
<glyph unicode="&#xe906;" glyph-name="05" d="M512 452.551c-56.889 0-111.502 54.613-145.636 141.084-15.929 11.378-36.409 45.511-36.409 75.093 0 15.929 0 61.44 45.511 61.44 95.573 0 161.564 79.644 161.564 79.644 2.276 2.276 6.827 4.551 11.378 4.551s6.827-2.276 9.102-6.827c0 0 31.858-77.369 91.022-77.369 45.511 0 45.511-45.511 45.511-61.44 0-29.582-20.48-63.716-36.409-75.093-29.582-86.471-88.747-141.084-145.636-141.084zM380.018 611.84c2.276 0 4.551-4.551 6.827-6.827 29.582-79.644 77.369-129.707 125.156-129.707s97.849 52.338 125.156 129.707c0 2.276 4.551 6.827 6.827 6.827 6.827 4.551 27.307 31.858 27.307 56.889 0 29.582-6.827 38.684-22.756 38.684-56.889 0-91.022 50.062-104.676 75.093-25.031-25.031-84.196-75.093-168.391-75.093-15.929 0-22.756-9.102-22.756-38.684 0-25.031 20.48-52.338 27.307-56.889zM411.876 411.591c-4.551 0-6.827 2.276-9.102 4.551-4.551 4.551-2.276 11.378 2.276 15.929 0 0 27.307 20.48 27.307 61.44 0 6.827 4.551 11.378 11.378 11.378s11.378-4.551 11.378-11.378c0-52.338-34.133-79.644-36.409-79.644-2.276-2.276-4.551-2.276-6.827-2.276zM612.124 411.591c-2.276 0-4.551 0-6.827 2.276-2.276 0-36.409 27.307-36.409 79.644 0 6.827 4.551 11.378 11.378 11.378s11.378-4.551 11.378-11.378c0-40.96 27.307-61.44 27.307-61.44 4.551-4.551 6.827-11.378 2.276-15.929-2.276-2.276-4.551-4.551-9.102-4.551zM514.276-23.040c-75.093 0-207.076 6.827-245.76 50.062-40.96 2.276-141.084 13.653-141.084 79.644 0 104.676 36.409 286.72 282.169 327.68l4.551-22.756c-229.831-38.684-263.964-207.076-263.964-304.924 0-31.858 43.236-50.062 125.156-56.889 4.551 0 6.827-2.276 9.102-4.551 18.204-27.307 106.951-45.511 229.831-45.511 118.329 0 209.351 18.204 227.556 45.511 2.276 2.276 4.551 4.551 9.102 4.551 54.613 4.551 125.156 13.653 125.156 56.889 0 97.849-34.133 266.24-261.689 302.649l4.551 22.756c252.587-40.96 279.893-241.209 279.893-325.404 0-65.991-95.573-75.093-141.084-79.644-38.684-43.236-168.391-50.062-243.484-50.062zM273.067 29.298c-6.827 0-11.378 4.551-11.378 11.378v220.729c0 6.827 4.551 11.378 11.378 11.378s11.378-4.551 11.378-11.378v-220.729c0-6.827-4.551-11.378-11.378-11.378zM750.933 29.298c-6.827 0-11.378 4.551-11.378 11.378v220.729c0 6.827 4.551 11.378 11.378 11.378s11.378-4.551 11.378-11.378v-220.729c0-6.827-4.551-11.378-11.378-11.378zM750.933 368.356c-4.551 0-9.102 2.276-11.378 6.827-68.267 170.667-68.267 320.853-68.267 327.68 0 59.164-15.929 193.422-159.289 193.422s-159.289-134.258-159.289-193.422c0-6.827 0-157.013-68.267-327.68-2.276-6.827-9.102-9.102-13.653-6.827-6.827 2.276-9.102 9.102-6.827 13.653 65.991 166.116 68.267 316.302 68.267 318.578 0 134.258 68.267 216.178 182.044 216.178s182.044-81.92 182.044-216.178c0-2.276 0-152.462 68.267-318.578 2.276-6.827 0-11.378-6.827-13.653-4.551 0-4.551 0-6.827 0zM512 250.027c-2.276 0-2.276 0-4.551 2.276-4.551 2.276-109.227 54.613-109.227 170.667 0 6.827 4.551 11.378 11.378 11.378s11.378-4.551 11.378-11.378c0-102.4 95.573-150.187 95.573-152.462 4.551-2.276 9.102-9.102 4.551-15.929 0-2.276-4.551-4.551-9.102-4.551zM512 250.027c-4.551 0-9.102 2.276-9.102 6.827-2.276 4.551 0 11.378 4.551 15.929 4.551 2.276 95.573 47.787 95.573 152.462 0 6.827 4.551 11.378 11.378 11.378s11.378-4.551 11.378-11.378c0-118.329-104.676-170.667-109.227-170.667-2.276-4.551-2.276-4.551-4.551-4.551zM434.631 174.933c0 0 0 0 0 0-2.276 0-6.827 2.276-9.102 4.551-43.236 45.511-95.573 122.88-95.573 227.556 0 6.827 4.551 11.378 11.378 11.378s11.378-4.551 11.378-11.378c0-91.022 43.236-159.289 81.92-204.8l65.991 65.991c4.551 4.551 11.378 4.551 15.929 0s4.551-11.378 0-15.929l-75.093-75.093c0 0-4.551-2.276-6.827-2.276zM587.093 174.933c-2.276 0-6.827 2.276-9.102 2.276l-75.093 75.093c-4.551 4.551-4.551 11.378 0 15.929s11.378 4.551 15.929 0l65.991-65.991c56.889 61.44 84.196 131.982 84.196 204.8 0 6.827 4.551 11.378 11.378 11.378s11.378-4.551 11.378-11.378c0-81.92-34.133-159.289-97.849-227.556 0-2.276-4.551-4.551-6.827-4.551 0 0 0 0 0 0zM512-23.040c-6.827 0-11.378 4.551-11.378 11.378v273.067c0 6.827 4.551 11.378 11.378 11.378s11.378-4.551 11.378-11.378v-273.067c0-6.827-4.551-11.378-11.378-11.378z" />
<glyph unicode="&#xe907;" glyph-name="model-cars" d="M513.138 328.966h-418.702v65.991h193.422c6.827 0 11.378 4.551 11.378 11.378s-4.551 11.378-11.378 11.378h-193.422v75.093l84.196 84.196h669.013l81.92-84.196v-150.187c0-6.827 4.551-11.378 11.378-11.378s11.378 4.551 11.378 11.378v154.738c0 2.276-2.276 6.827-2.276 6.827l-88.747 91.022-91.022 223.004c-2.276 4.551-6.827 6.827-11.378 6.827h-493.796c-4.551 0-9.102-2.276-11.378-6.827l-91.022-223.004-88.747-88.747c-2.276-2.276-2.276-4.551-2.276-9.102v-179.769c0-6.827 4.551-11.378 11.378-11.378h34.133v-79.644c0-6.827 4.551-11.378 11.378-11.378h136.533c6.827 0 11.378 4.551 11.378 11.378v79.644h236.658c6.827 0 11.378 4.551 11.378 11.378s-4.551 11.378-11.378 11.378zM271.929 802.281h480.142l81.92-202.524h-643.982l81.92 202.524zM253.724 237.943h-113.778v68.267h113.778v-68.267zM734.003 70.963h-9.557l-1.297 0.364c-73.455 21.117-114.574 54.568-136.101 78.894-24.007 27.125-31.471 51.109-31.471 56.775v230.696c0 8.397 5.097 14.95 12.197 16.225 2.458 0.978 5.006 1.502 7.441 1.502 3.732 0 7.145-1.206 9.717-3.436 23.848-17.408 44.123-25.19 65.673-25.19 24.804 0 47.559 11.082 62.441 30.424l0.387 0.501 0.432 0.432c3.413 3.413 8.397 5.37 13.631 5.37s10.217-1.957 13.631-5.37l0.432-0.432 0.387-0.501c14.882-19.342 37.638-30.424 62.441-30.424 21.891 0 41.256 9.876 70.519 26.123l0.364 0.205c2.139 1.070 5.052 2.298 8.579 2.298s6.44-1.229 8.579-2.298c6.053-3.026 10.445-9.512 10.445-15.428v-232.949l-0.887-1.752c-0.068-0.182-0.159-0.387-0.25-0.66-10.354-27.83-47.309-96.302-166.411-130.981l-1.32-0.387zM727.177 90.192h4.096c109.363 32.245 142.95 93.48 152.394 118.625v226.964c-30.72-17.044-52.929-28.217-79.235-28.217-30.31 0-58.186 13.358-76.732 36.727-0.091 0-0.205 0-0.296 0-18.546-23.37-46.421-36.727-76.732-36.727-25.509 0-48.97 8.647-75.822 28.012v-228.011c0.865-4.415 7.987-24.28 28.649-46.831 19.684-21.527 57.139-51.177 123.676-70.542zM734.345 360.801c0 5.12-3.413 8.533-8.533 8.533s-8.533-3.413-8.533-8.533v-68.335h17.089v68.335zM717.255 205.312c0-5.12 3.413-8.533 8.533-8.533s8.533 3.413 8.533 8.533v70.064h-17.089v-70.064zM802.702 292.443h-68.358v-17.089h68.358c5.12 0 8.533 3.413 8.533 8.533 0 5.143-3.413 8.556-8.533 8.556zM648.92 292.443c-5.12 0-8.533-3.413-8.533-8.533s3.413-8.533 8.533-8.533h68.335v17.089h-68.335zM716.868 292.83h17.863v-17.863h-17.863v17.863z" />
<glyph unicode="&#xe908;" glyph-name="ins-plan" d="M474.726 58.038h-339.217c-6.212 0-10.354 4.142-10.354 10.331v792.257c0 6.19 4.142 10.354 10.354 10.354h415.767c2.094 0 6.212-2.071 8.283-2.071l188.211-188.234c2.071-2.071 2.071-4.142 2.071-8.26v-39.322c0-6.19-4.164-10.354-10.331-10.354-6.19 0-10.331 4.164-10.331 10.354v35.157l-182.044 182.022h-401.294v-771.55h328.909c6.19 0 10.354-4.164 10.354-10.354s-4.164-10.331-10.377-10.331zM739.51 662.039h-188.234c-6.19 0-10.354 4.164-10.354 10.354v188.234c0 6.19 4.164 10.354 10.354 10.354 6.212 0 10.331-4.164 10.331-10.354v-177.903h177.903c6.167 0 10.331-4.142 10.331-10.331s-4.142-10.354-10.331-10.354zM816.037-18.489c-2.071 0-4.142 0-6.212 2.048l-107.543 88.974-107.588-88.974c-2.071-2.048-6.19-2.048-10.308-2.048-4.164 2.048-6.19 6.19-6.19 10.354v246.124h20.685v-223.391l97.189 80.691c4.119 4.142 10.331 4.142 12.425 0l97.212-80.691v223.391h20.685v-246.124c0-4.164-2.094-8.306-6.212-10.354-2.071 0-2.071 0-4.142 0zM702.282 283.5c-37.274 0-66.196 28.968-66.196 66.219 0 37.228 28.922 66.196 66.196 66.196 37.228 0 66.15-28.968 66.15-66.196 0.023-37.251-28.922-66.219-66.15-66.219zM702.282 395.23c-24.849 0-45.511-20.708-45.511-45.511 0-24.826 20.662-45.511 45.511-45.511 24.804 0 45.488 20.685 45.488 45.511 0 24.804-20.685 45.511-45.488 45.511zM702.282 169.722c-35.18 0-64.148 18.614-76.55 47.605-31.016-2.094-62.077 14.473-78.598 43.418-16.566 26.897-16.566 64.125 2.071 91.022-18.614 26.897-18.614 62.077-2.071 90.999 16.543 28.968 47.582 45.511 78.598 43.44 14.495 28.945 43.44 47.582 76.55 47.582 35.135 0 64.102-18.637 76.504-47.582 31.016 0 62.054-14.473 78.62-43.44 16.543-26.874 16.543-64.102-2.094-90.999 18.614-26.897 18.614-62.077 2.094-88.951-16.589-28.922-45.511-45.488-78.62-43.418-14.45-31.039-43.418-49.675-76.504-49.675zM631.945 237.989c4.164 0 8.283-2.071 10.354-6.19 8.283-24.804 33.087-41.37 60.006-41.37 26.897 0 51.701 16.589 59.961 41.37 2.094 4.142 6.19 6.19 10.354 6.19 26.897-4.119 53.794 8.283 66.196 33.109 14.473 24.804 12.402 51.701-6.19 72.408-4.164 4.142-4.164 8.26 0 12.402 16.543 20.685 18.591 51.701 6.19 72.408-14.495 22.756-41.37 35.157-66.196 33.109-4.164 0-10.354 2.048-10.354 6.19-8.238 24.826-33.064 41.37-59.961 41.37-26.92 0-51.701-16.543-60.006-41.37-2.071-4.142-6.19-6.19-10.354-6.19-26.874 4.142-53.749-8.283-66.173-33.109-14.495-22.756-10.354-53.794 6.19-72.408 4.142-4.142 4.142-8.26 0-12.402-16.566-20.685-18.591-51.701-6.19-72.408 12.402-24.804 39.299-37.205 66.173-33.109v0z" />
<glyph unicode="&#xe909;" glyph-name="insured" d="M1009.232 495.036v84.196c0 6.827-4.574 11.378-11.378 11.378h-127.454c-6.827 0-11.378-4.551-11.378-11.378v-11.378l-61.44 184.32c-2.276 4.551-6.827 6.827-11.378 6.827h-550.662c-4.574 0-9.102-2.276-11.378-6.827l-59.187-177.493v4.551c0 6.827-4.551 11.378-11.378 11.378h-127.454c-6.804 0-11.378-4.551-11.378-11.378v-84.196c0-6.849 4.574-11.378 11.378-11.378h95.96l-105.040-106.951c0-0.887-0.478-2.253-0.887-3.573-0.819-1.593-1.411-3.413-1.411-5.53v-168.368c0-6.849 4.574-11.378 11.378-11.378h29.605v-72.818c0-6.827 4.528-11.378 11.378-11.378h127.431c6.849 0 11.378 4.551 11.378 11.378v72.818h145.636v-31.858c0-6.827 4.528-11.378 11.378-11.378h295.822c6.827 0 11.378 4.551 11.378 11.378v31.858h145.636v-72.818c0-6.827 4.528-11.378 11.378-11.378h127.431c6.827 0 11.378 4.551 11.378 11.378v72.818h29.582c6.827 0 11.378 4.528 11.378 11.378v168.368c0 4.551 0 6.827-2.298 9.102l-105.017 106.951h98.213c6.804 0 11.401 4.551 11.401 11.378zM244.622 736.245h532.457l77.369-229.831h-687.172l77.346 229.831zM37.524 567.854h104.698v-61.44h-104.698v61.44zM183.182 356.227v-61.44h-145.636v61.44h145.636zM183.182 126.396h-104.676v61.44h104.676v-61.44zM647.396 167.356h-273.067v104.676h273.067v-104.676zM943.218 126.396h-104.676v61.44h104.676v-61.44zM954.596 210.591h-284.444v72.795c0 6.849-4.551 11.378-11.378 11.378h-295.822c-6.849 0-11.378-4.528-11.378-11.378v-72.795h-314.049v61.417h157.013c6.849 0 11.378 4.551 11.378 11.378v84.196c0 6.827-4.528 11.378-11.378 11.378h-141.358l102.719 104.698h709.951l102.719-104.698h-141.38c-6.849 0-11.378-4.551-11.378-11.378v-84.196c0-6.827 4.528-11.378 11.378-11.378h156.991v-61.417h-29.582zM984.178 294.787h-145.613v61.44h145.613v-61.44zM986.476 506.414h-104.698v61.44h104.698v-61.44zM510.862 422.218c-6.849 0-11.378-4.551-11.378-11.378v-43.236c0-6.827 4.528-11.378 11.378-11.378 6.827 0 11.378 4.551 11.378 11.378v43.236c0 6.827-4.551 11.378-11.378 11.378z" />
<glyph unicode="&#xe90a;" glyph-name="insurance-mone" d="M363.816 713.375c-137.17 0-284.171 29.4-284.171 82.307 0 52.929 147.001 82.33 284.171 82.33 137.193 0 284.171-29.4 284.171-82.33 0.023-52.907-146.955-82.307-284.171-82.307zM363.816 858.396c-164.636 0-264.579-37.228-264.579-62.714s99.942-62.692 264.579-62.692c164.636 0 264.602 37.228 264.602 62.692 0 25.486-99.942 62.714-264.602 62.714zM365.796 603.602c-137.193 0-284.194 29.4-284.194 82.33v109.75c0 5.894 3.891 9.808 9.808 9.808 5.871 0 9.808-3.914 9.808-9.808v-109.75c0-25.486 99.965-62.714 264.579-62.714 156.786 0 264.556 33.314 264.556 62.714v109.75c0 5.894 3.937 9.808 9.83 9.808s9.785-3.914 9.785-9.808v-109.75c-0.023-54.886-143.064-82.33-284.171-82.33zM365.796 493.875c-137.193 0-284.194 29.4-284.194 82.307v109.75c0 5.871 3.891 9.808 9.808 9.808 5.871 0 9.808-3.914 9.808-9.808v-109.75c0-25.486 99.965-62.714 264.579-62.714 156.786 0 264.556 33.314 264.556 62.714v109.75c0 5.871 3.937 9.808 9.83 9.808s9.785-3.914 9.785-9.808v-109.75c-0.023-54.886-143.064-82.307-284.171-82.307zM657.818 235.145c-137.193 0-284.194 29.4-284.194 82.307s147.001 82.307 284.194 82.307 284.171-29.4 284.171-82.307-146.955-82.307-284.171-82.307zM657.818 380.188c-164.636 0-264.579-37.251-264.579-62.714 0-25.486 99.965-62.737 264.579-62.737s264.579 37.251 264.579 62.737c0 25.463-99.942 62.714-264.579 62.714zM657.818 125.372c-137.193 0-284.194 29.423-284.194 82.33v109.75c0 5.894 3.914 9.83 9.808 9.83 5.871 0 9.808-3.937 9.808-9.83v-109.75c0-25.486 99.965-62.737 264.579-62.737 156.786 0 264.579 33.337 264.579 62.737v109.75c0 5.894 3.937 9.83 9.785 9.83 5.894 0 9.83-3.937 9.83-9.83v-109.75c-0.023-54.886-143.087-82.33-284.194-82.33zM657.818 15.644c-137.193 0-284.194 29.423-284.194 82.307v109.75c0 5.871 3.914 9.808 9.808 9.808 5.871 0 9.808-3.937 9.808-9.808v-109.75c0-25.463 99.965-62.714 264.579-62.714 156.786 0 264.579 33.337 264.579 62.714v109.75c0 5.871 3.937 9.808 9.785 9.808 5.894 0 9.83-3.937 9.83-9.808v-109.75c-0.023-54.864-143.087-82.307-284.194-82.307zM365.796 384.102c-137.193 0-284.194 29.377-284.194 82.33v109.75c0 5.871 3.891 9.808 9.808 9.808 5.871 0 9.808-3.914 9.808-9.808v-109.75c0-25.486 99.965-62.737 264.579-62.737 156.786 0 264.556 33.337 264.556 62.737v109.75c0 5.871 3.937 9.808 9.83 9.808s9.785-3.914 9.785-9.808v-109.75c-0.023-54.886-143.064-82.33-284.171-82.33zM381.474 272.373h-17.636c-141.13 0-284.194 27.443-284.194 82.33v109.75c0 5.871 3.914 9.808 9.808 9.808s9.808-3.937 9.808-9.808v-109.75c0-29.423 107.793-62.737 264.579-62.737h17.636c5.871 0 9.808-3.891 9.808-9.785s-3.937-9.808-9.808-9.808zM381.474 162.623h-17.636c-141.107 0-284.171 27.443-284.171 82.352v109.727c0 5.871 3.914 9.808 9.808 9.808s9.808-3.937 9.808-9.808v-109.727c0-29.423 107.793-62.76 264.579-62.76h17.636c5.871 0 9.808-3.914 9.808-9.785-0.023-5.871-3.959-9.808-9.83-9.808zM640.182 382.123c-5.894 0-9.83 3.937-9.83 9.83v72.499c0 5.871 3.937 9.808 9.83 9.808s9.785-3.937 9.785-9.808v-72.499c-0.023-5.894-3.891-9.83-9.785-9.83z" />
<glyph unicode="&#xe90b;" glyph-name="recommended" d="M512 204.516c-2.276 0-6.827 2.276-9.102 4.551l-50.062 61.44-70.542-36.409c-2.276-2.276-6.827-2.276-9.102 0s-4.551 4.551-6.827 6.827l-25.031 77.369-79.644-9.102c-2.276 0-6.827 0-9.102 2.276s-4.551 6.827-2.276 9.102l9.102 79.644-77.369 25.031c-2.276 0-6.827 2.276-6.827 6.827s-2.276 6.827 0 9.102l36.409 70.542-61.44 50.062c-2.276 2.276-4.551 4.551-4.551 9.102s2.276 6.827 4.551 9.102l61.44 50.062-36.409 70.542c-2.276 2.276-2.276 6.827 0 9.102s4.551 4.551 6.827 6.827l77.369 25.031-11.378 81.92c0 2.276 0 6.827 2.276 9.102s6.827 4.551 9.102 2.276l79.644-9.102 25.031 81.92c0 2.276 2.276 6.827 6.827 6.827 2.276 2.276 6.827 2.276 9.102 0l70.542-36.409 52.338 59.164c4.551 4.551 13.653 4.551 18.204 0l50.062-61.44 70.542 36.409c4.551 2.276 9.102 2.276 11.378 2.276 2.276-2.276 4.551-4.551 6.827-6.827l25.031-77.369 79.644 9.102c2.276 0 6.827 0 9.102-2.276s4.551-6.827 2.276-9.102l-9.102-79.644 77.369-25.031c2.276 0 6.827-2.276 6.827-6.827s0-6.827 0-9.102l-36.409-70.542 61.44-50.062c2.276-2.276 4.551-4.551 4.551-9.102s-2.276-6.827-4.551-9.102l-61.44-50.062 36.409-70.542c2.276-2.276 2.276-6.827 0-9.102s-4.551-4.551-6.827-6.827l-77.369-25.031 9.102-79.644c0-2.276 0-6.827-2.276-9.102s-6.827-4.551-9.102-2.276l-79.644 9.102-25.031-86.471c0-2.276-2.276-6.827-6.827-6.827s-6.827 0-9.102 0l-70.542 36.409-52.338-59.164c-2.276-2.276-6.827-4.551-9.102-4.551zM455.111 295.538c2.276 0 6.827-2.276 9.102-4.551l47.787-56.889 47.787 56.889c4.551 4.551 9.102 4.551 13.653 2.276l68.267-34.133 22.756 72.818c2.276 4.551 6.827 9.102 11.378 6.827l75.093-6.827-6.827 75.093c0 4.551 2.276 11.378 6.827 11.378l72.818 22.756-34.133 68.267c-2.276 4.551-2.276 11.378 2.276 13.653l56.889 47.787-56.889 47.787c-4.551 2.276-4.551 9.102-2.276 13.653l34.133 68.267-72.818 22.756c-4.551 2.276-9.102 6.827-6.827 11.378l6.827 77.369-75.093-6.827c-4.551 0-11.378 2.276-11.378 6.827l-22.756 72.818-68.267-34.133c-4.551-2.276-11.378-2.276-13.653 2.276l-47.787 56.889-47.787-56.889c-2.276-4.551-9.102-4.551-13.653-2.276l-68.267 34.133-22.756-72.818c-2.276-4.551-6.827-9.102-11.378-6.827l-75.093 6.827 6.827-75.093c0-4.551-2.276-11.378-6.827-11.378l-72.818-22.756 34.133-68.267c2.276-4.551 2.276-11.378-2.276-13.653l-59.164-47.787 56.889-47.787c4.551-2.276 4.551-9.102 2.276-13.653l-34.133-68.267 72.818-22.756c4.551-2.276 9.102-6.827 6.827-11.378l-4.551-75.093 75.093 6.827c4.551 0 11.378-2.276 11.378-6.827l22.756-72.818 68.267 34.133c0 0 2.276 0 4.551 0zM637.156 416.142c-2.276 0-4.551 0-6.827 2.276l-118.329 72.818-118.329-72.818c-4.551-2.276-9.102-2.276-13.653 0s-4.551 6.827-4.551 11.378l38.684 138.809-100.124 102.4c-2.276 2.276-4.551 9.102-2.276 11.378s6.827 6.827 11.378 6.827h118.329l61.44 100.124c4.551 6.827 15.929 6.827 20.48 0l61.44-100.124h118.329c4.551 0 9.102-2.276 11.378-6.827s0-9.102-2.276-11.378l-100.124-102.4 38.684-138.809c2.276-4.551 0-9.102-4.551-11.378s-6.827-2.276-9.102-2.276zM512 516.267c2.276 0 4.551 0 6.827-2.276l100.124-61.44-34.133 118.329c0 4.551 0 9.102 2.276 11.378l86.471 88.747h-97.849c-4.551 0-6.827 2.276-9.102 4.551l-54.613 88.747-54.613-88.747c-2.276-2.276-6.827-4.551-9.102-4.551h-97.849l86.471-88.747c2.276-2.276 4.551-6.827 2.276-11.378l-34.133-118.329 100.124 61.44c2.276 2.276 4.551 2.276 6.827 2.276zM771.413-45.796c-4.551 0-6.827 2.276-9.102 4.551l-111.502 186.596 20.48 11.378 100.124-166.116 45.511 129.707c2.276 4.551 6.827 9.102 13.653 6.827l138.809-22.756-129.707 225.28 20.48 11.378 136.533-245.76c2.276-4.551 2.276-9.102 0-11.378-2.276-4.551-6.827-4.551-11.378-4.551l-152.462 25.031-52.338-143.36c0-4.551-4.551-6.827-9.102-6.827 0 0 0 0 0 0zM252.587-45.796c0 0 0 0 0 0-4.551 0-9.102 2.276-11.378 6.827l-52.338 143.36-152.462-25.031c-4.551 0-9.102 0-11.378 4.551s-2.276 9.102 0 11.378l141.084 245.76 20.48-11.378-129.707-225.28 138.809 22.756c4.551 0 11.378-2.276 13.653-6.827l45.511-129.707 100.124 166.116 20.48-11.378-113.778-186.596c-2.276-2.276-4.551-4.551-9.102-4.551z" />
<glyph unicode="&#xe90c;" glyph-name="11" d="M512-43.52h-480.142c-2.276 0-6.827 2.276-9.102 2.276-2.276 2.276-2.276 4.551-2.276 9.102s2.276 131.982 47.787 197.973c27.307 43.236 111.502 75.093 197.973 106.951 18.204 6.827 38.684 13.653 56.889 20.48l9.102-20.48c-18.204-6.827-38.684-13.653-56.889-22.756-84.196-31.858-163.84-61.44-188.871-100.124-34.133-50.062-40.96-141.084-43.236-172.942h468.764v-20.48zM992.142-43.52h-480.142v22.756h468.764c0 31.858-4.551 125.156-36.409 172.942-25.031 38.684-104.676 68.267-188.871 100.124-18.204 6.827-36.409 13.653-54.613 20.48l9.102 20.48c18.204-6.827 36.409-13.653 52.338-20.48 88.747-34.133 170.667-63.716 200.249-109.227 43.236-65.991 40.96-191.147 40.96-197.973 0-4.551-4.551-9.102-11.378-9.102zM614.4-45.796h-209.351c-4.551 0-6.827 2.276-9.102 4.551s-2.276 6.827-2.276 9.102c4.551 18.204 47.787 179.769 118.329 179.769 75.093 0 113.778-179.769 113.778-182.044 0-6.827-4.551-11.378-11.378-11.378zM420.978-23.040h179.769c-11.378 40.96-45.511 147.911-88.747 147.911-36.409 0-75.093-86.471-91.022-147.911zM263.964 104.391c-2.276 0-4.551 0-6.827 2.276-4.551 2.276-4.551 6.827-4.551 11.378l43.236 129.707c13.653 36.409 47.787 77.369 81.92 93.298l25.031 13.653c4.551 2.276 6.827 2.276 11.378 0s4.551-6.827 4.551-9.102v-38.684c22.756-15.929 72.818-34.133 97.849-34.133 4.551 0 9.102-4.551 11.378-9.102s0-9.102-4.551-13.653l-252.587-145.636c-2.276 0-4.551 0-6.827 0zM395.947 327.396l-9.102-4.551c-27.307-13.653-59.164-50.062-70.542-79.644l-31.858-102.4 197.973 113.778c-31.858 6.827-65.991 22.756-81.92 38.684-2.276 2.276-4.551 4.551-4.551 9.102v25.031zM766.862 104.391c-2.276 0-4.551 0-4.551 2.276l-257.138 145.636c-4.551 2.276-6.827 6.827-4.551 13.653 2.276 4.551 6.827 9.102 11.378 9.102 25.031 0 72.818 18.204 95.573 34.133v36.409c0 4.551 2.276 6.827 4.551 9.102s6.827 2.276 11.378 0l29.582-13.653c34.133-18.204 70.542-56.889 84.196-93.298l43.236-129.707c2.276-4.551 0-9.102-4.551-11.378s-6.827-2.276-9.102-2.276zM543.858 254.578l202.524-113.778-34.133 102.4c-11.378 29.582-43.236 65.991-70.542 79.644l-13.653 6.827v-25.031c0-2.276-2.276-6.827-4.551-9.102-15.929-18.204-50.062-31.858-79.644-40.96zM512 122.596c-40.96 0-75.093 34.133-75.093 75.093v25.031h22.756v-25.031c0-29.582 22.756-52.338 52.338-52.338s52.338 22.756 52.338 52.338v25.031h22.756v-25.031c0-40.96-34.133-75.093-75.093-75.093zM628.053 304.64h-22.756v125.156c0 4.551 2.276 6.827 4.551 9.102s59.164 38.684 59.164 116.053c0 6.827 4.551 11.378 11.378 11.378 2.276 2.276 13.653 20.48 13.653 45.511 0 11.378-2.276 29.582-18.204 38.684-4.551 2.276-6.827 6.827-6.827 11.378s2.276 11.378 9.102 27.307c13.653 34.133 43.236 106.951 34.133 159.289-9.102 47.787-86.471 70.542-159.289 72.818-77.369 2.276-143.36-20.48-152.462-52.338-2.276-4.551-6.827-9.102-11.378-9.102-20.48 0-36.409-6.827-45.511-18.204-27.307-36.409-2.276-113.778 9.102-152.462 4.551-15.929 6.827-22.756 6.827-27.307s-2.276-9.102-6.827-9.102c-15.929-6.827-18.204-27.307-18.204-38.684 0-25.031 9.102-40.96 11.378-43.236 6.827 0 9.102-4.551 9.102-11.378 0-77.369 56.889-116.053 56.889-116.053 2.276-2.276 4.551-4.551 4.551-9.102v-125.156h-22.756v118.329c-15.929 11.378-59.164 52.338-61.44 122.88-9.102 4.551-15.929 18.204-20.48 34.133-6.827 29.582-2.276 65.991 20.48 84.196 0 4.551-2.276 9.102-4.551 13.653-13.653 45.511-38.684 129.707-6.827 172.942 11.378 15.929 31.858 25.031 54.613 27.307 18.204 43.236 97.849 63.716 172.942 61.44s168.391-27.307 182.044-91.022c11.378-59.164-18.204-131.982-36.409-172.942-2.276-4.551-4.551-9.102-4.551-13.653 22.756-18.204 25.031-52.338 20.48-77.369-4.551-15.929-11.378-31.858-22.756-38.684-2.276-70.542-47.787-111.502-63.716-122.88v-122.88z" />
<glyph unicode="&#xe90d;" glyph-name="12" d="M991.346 643.129c0 4.551-2.276 6.827-4.551 9.102-4.551 2.276-6.827 2.276-11.378 0 0 0-79.644-34.133-175.218-2.276-2.276 34.133-6.827 175.218 61.44 284.444 2.276 2.276 2.276 6.827 0 11.378-2.276 2.276-6.827 4.551-11.378 4.551-118.329-20.48-336.782-122.88-327.68-279.893-59.164 13.653-125.156 111.502-147.911 152.462-2.276 4.551-4.551 6.827-9.102 6.827-2.276 0-6.827-2.276-9.102-4.551-2.185-2.185-121.492-194.879-12.675-308.998h-86.835c-4.551 0-9.102-2.276-11.378-6.827l-82.694-207.849-85.697-85.697c0-2.276-2.276-6.827-2.276-9.102v-170.667c0-6.827 4.551-11.378 11.378-11.378h31.858v-72.818c0-6.827 4.551-11.378 11.378-11.378h127.431c6.827 0 11.378 4.551 11.378 11.378v72.818h446.009v-72.818c0-6.827 4.551-11.378 11.378-11.378h127.431c6.827 0 11.378 4.551 11.378 11.378v72.818h31.858c6.827 0 11.378 4.551 11.378 11.378v170.667c0 2.276 0 4.551-2.276 6.827l-81.897 84.105c-0.023 0.023-0.023 0.068-0.023 0.091l-23.962 58.664c189.372 66.423 191.738 284.49 191.738 286.743zM263.782 493.42h455.111l77.369-188.871h-607.573l75.093 188.871zM456.59 520.249c0 0-43.236 31.858-40.96 91.022 22.756-25.031 68.267-61.44 125.156-54.613 52.338 4.551 97.849 47.787 138.809 125.156 13.653-75.093 29.582-113.778 59.164-134.258 25.031-15.929 56.889-20.48 109.227-13.653l-81.488-96.506-29.4 71.93c-2.276 4.551-6.827 6.827-11.378 6.827h-266.103c-0.796 1.479-1.82 2.867-3.026 4.096zM245.578-36.784h-104.676v61.44h104.676v-61.44zM841.774-36.784h-104.676v61.44h104.676v-61.44zM807.64 281.793l77.369-79.644v-68.267h-179.769c-6.827 0-11.378-4.551-11.378-11.378s4.551-11.378 11.378-11.378h179.769v-63.716h-787.342v63.716h182.044c6.827 0 11.378 4.551 11.378 11.378s-4.551 11.378-11.378 11.378h-182.044v68.267l79.644 79.644h630.329zM792.189 374.477l-17.021 41.643c0.569 1.070 0.819 2.321-0.023 4.005l106.951 127.431c2.276 4.551 2.276 9.102 0 13.653-2.276 2.276-6.827 4.551-11.378 4.551-63.716-13.653-100.124-11.378-122.88 4.551-27.307 18.204-43.236 63.716-54.613 154.738 0 4.551-4.551 9.102-9.102 9.102s-9.102-2.276-11.378-6.827c-38.684-93.298-86.471-141.084-136.533-147.911-47.787-4.551-95.573 31.858-120.604 65.991-2.276 4.551-6.827 4.551-11.378 4.551-4.551-2.276-9.102-4.551-9.102-9.102-15.588-62.327 12.584-104.357 31.881-124.678h-51.951c-0.614 1.456-1.456 2.844-2.685 4.073-97.849 81.92-31.858 225.28-6.827 275.342 25.031-43.236 97.849-147.911 170.667-147.911 4.551 0 6.827 2.276 9.102 4.551s2.276 6.827 2.276 9.102c-20.48 136.533 166.116 234.382 282.169 259.413-65.991-125.156-50.062-275.342-50.062-282.169 0-4.551 2.276-6.827 6.827-9.102 79.644-31.858 150.187-15.929 182.044-6.827-4.483-49.402-31.357-198.315-176.378-248.172z" />
<glyph unicode="&#xe90e;" glyph-name="info" d="M345.884 564.053v36.409c84.196 9.102 157.013 27.307 213.902 54.613l13.653-11.378c-2.276-91.022-4.551-161.564-4.551-211.627v-118.329c2.276-113.778 4.551-175.218 4.551-184.32 0-22.756 2.276-38.684 6.827-47.787 2.276-4.551 4.551-6.827 9.102-9.102s9.102-4.551 15.929-6.827c2.276 0 27.307 0 72.818-2.276v-36.409c-65.991 2.276-120.604 4.551-159.289 4.551-34.133 0-93.298-2.276-170.667-4.551v36.409h63.716c9.102 0 15.929 2.276 20.48 4.551s9.102 6.827 11.378 11.378c4.551 9.102 6.827 25.031 9.102 45.511 0 4.551 0 68.267 2.276 188.871v116.053c0 65.991-2.276 104.676-6.827 116.053-2.276 6.827-6.827 11.378-13.653 13.653s-36.409 4.551-88.747 4.551zM507.449 871.253c20.48 0 38.684-6.827 52.338-22.756 13.653-13.653 20.48-31.858 20.48-52.338s-6.827-36.409-22.756-52.338c-13.653-13.653-31.858-22.756-52.338-22.756s-38.684 6.827-52.338 22.756c-13.653 13.653-22.756 31.858-22.756 52.338s6.827 38.684 22.756 52.338c15.929 15.929 34.133 22.756 54.613 22.756z" />
<glyph unicode="&#xe90f;" glyph-name="calendar" d="M985.316-36.693h-946.631c-6.827 0-11.378 4.551-11.378 11.378v864.711c0 6.827 4.551 11.378 11.378 11.378h163.84c6.827 0 11.378-4.551 11.378-11.378s-4.551-11.378-11.378-11.378h-152.462v-841.956h923.876v841.956h-152.462c-6.827 0-11.378 4.551-11.378 11.378s4.551 11.378 11.378 11.378h163.84c6.827 0 11.378-4.551 11.378-11.378v-864.711c0-6.827-4.551-11.378-11.378-11.378zM325.404 743.822h-122.88c-6.827 0-11.378 4.551-11.378 11.378v166.116c0 6.827 4.551 11.378 11.378 11.378h122.88c6.827 0 11.378-4.551 11.378-11.378v-166.116c0-6.827-4.551-11.378-11.378-11.378zM213.902 766.578h100.124v143.36h-100.124v-143.36zM821.476 743.822h-122.88c-6.827 0-11.378 4.551-11.378 11.378v166.116c0 6.827 4.551 11.378 11.378 11.378h122.88c6.827 0 11.378-4.551 11.378-11.378v-166.116c0-6.827-4.551-11.378-11.378-11.378zM709.973 766.578h100.124v143.36h-100.124v-143.36zM698.596 828.018h-373.191c-6.827 0-11.378 4.551-11.378 11.378s4.551 11.378 11.378 11.378h373.191c6.827 0 11.378-4.551 11.378-11.378s-4.551-11.378-11.378-11.378zM985.316 623.218h-946.631c-6.827 0-11.378 4.551-11.378 11.378s4.551 11.378 11.378 11.378h946.631c6.827 0 11.378-4.551 11.378-11.378s-4.551-11.378-11.378-11.378zM284.444 45.227c-6.827 0-11.378 4.551-11.378 11.378v493.796c0 6.827 4.551 11.378 11.378 11.378s11.378-4.551 11.378-11.378v-493.796c0-6.827-4.551-11.378-11.378-11.378zM491.52 45.227c-6.827 0-11.378 4.551-11.378 11.378v493.796c0 6.827 4.551 11.378 11.378 11.378s11.378-4.551 11.378-11.378v-493.796c0-6.827-4.551-11.378-11.378-11.378zM698.596 45.227c-6.827 0-11.378 4.551-11.378 11.378v493.796c0 6.827 4.551 11.378 11.378 11.378s11.378-4.551 11.378-11.378v-493.796c0-6.827-4.551-11.378-11.378-11.378zM903.396 457.102h-782.791c-6.827 0-11.378 4.551-11.378 11.378s4.551 11.378 11.378 11.378h782.791c6.827 0 11.378-4.551 11.378-11.378s-4.551-11.378-11.378-11.378zM903.396 293.262h-782.791c-6.827 0-11.378 4.551-11.378 11.378s4.551 11.378 11.378 11.378h782.791c6.827 0 11.378-4.551 11.378-11.378s-4.551-11.378-11.378-11.378zM903.396 127.147h-782.791c-6.827 0-11.378 4.551-11.378 11.378s4.551 11.378 11.378 11.378h782.791c6.827 0 11.378-4.551 11.378-11.378s-4.551-11.378-11.378-11.378z" />
<glyph unicode="&#xe910;" glyph-name="refresh" d="M163.931 356.705v0c-11.719 0-20.526 5.871-23.461 11.742l-128.933 193.422c-8.784 14.655-5.871 32.245 8.784 41.028s32.245 5.848 41.028-8.806l108.43-161.178 126.043 143.61c11.719 11.719 29.309 14.655 41.006 2.913 11.719-11.719 14.655-29.309 2.935-41.028l-149.458-172.942c-8.806-5.825-17.59-8.761-26.374-8.761zM588.846 10.911c-14.655 0-29.286 11.742-29.286 29.309 0 17.545 11.719 29.286 29.286 29.286 102.582 2.935 196.38 46.899 263.782 120.149 70.337 73.273 105.495 169.984 102.582 272.566-2.958 102.582-46.922 196.358-120.172 263.76-73.296 70.337-169.984 105.495-272.566 102.559-102.559-2.935-199.27-46.876-266.65-123.062-73.273-82.079-108.453-196.358-99.669-319.465 0-17.567-11.719-29.309-26.374-32.245-17.567 0-29.309 11.719-32.245 26.374-11.719 137.762 29.309 266.718 114.301 360.494 79.121 87.905 187.574 140.675 307.723 143.588 117.214 2.913 228.602-38.093 313.572-117.237 84.969-79.121 134.804-184.616 140.675-301.852 2.913-117.214-38.093-228.58-117.237-313.572-79.121-84.969-187.574-134.781-307.723-140.652v0z" />
<glyph unicode="&#xe911;" glyph-name="service" d="M977.351-8.59h-29.582v716.8c0 6.827-4.551 11.378-11.378 11.378h-81.92c-6.827 0-11.378-4.551-11.378-11.378v-232.107h-97.849v59.164h29.582c6.827 0 11.378 4.551 13.653 11.378v120.604c0 4.551 0 6.827-2.276 9.102l-81.92 81.92c-0.432 0-1.161 0.296-1.729 0.432l-36.955 154.305c-2.276 4.551-6.827 9.102-11.378 9.102h-284.444c-4.551 0-9.102-4.551-11.378-9.102l-40.186-158.515-78.143-78.143c0-2.276-2.276-6.827-2.276-9.102v-120.604c0-6.827 4.551-11.378 11.378-11.378h27.307v-59.164h-97.849v232.107c0 6.827-4.551 11.378-11.378 11.378h-81.92c-6.827 0-11.378-4.551-11.378-11.378v-716.8h-27.307c-6.827 0-11.378-4.551-11.378-11.378s4.551-11.378 11.378-11.378h161.564c6.827 0 11.378 4.551 11.378 11.378s-4.551 11.378-11.378 11.378h-29.582v461.938h664.462v-461.938h-27.307c-6.827 0-11.378-4.551-11.378-11.378s4.551-11.378 11.378-11.378h161.564c6.827 0 11.378 4.551 11.378 11.378s-4.551 11.378-11.378 11.378zM96.711-8.59v705.422h56.889v-705.422h-56.889zM378.88 899.356h266.24l34.133-138.809h-334.507l34.133 138.809zM260.551 614.912h88.747c6.827 0 11.378 4.551 11.378 11.378s-4.551 11.378-11.378 11.378h-88.747v25.031l72.818 75.093h354.987l75.093-75.093v-25.031h-88.747c-6.827 0-11.378-4.551-11.378-11.378s4.551-11.378 11.378-11.378h88.747v-56.889h-502.898v56.889zM640.569 535.268v-59.164h-259.413v59.164h259.413zM299.236 476.103v56.889h56.889v-56.889h-56.889zM665.6 476.103v56.889h56.889v-56.889h-56.889zM865.849-8.59v705.422h56.889v-705.422h-56.889zM510.862 275.854c-40.96 0-72.818-34.133-72.818-72.818 0-40.96 34.133-72.818 72.818-72.818 40.96 0 72.818 31.858 72.818 72.818s-34.133 72.818-72.818 72.818zM510.862 150.699c-27.307 0-50.062 22.756-50.062 50.062s22.756 50.062 50.062 50.062c27.307 0 50.062-22.756 50.062-50.062s-22.756-50.062-50.062-50.062zM702.009 255.374c0 2.276 0 6.827-2.276 9.102l-40.96 70.542c-2.276 2.276-4.551 4.551-6.827 4.551s-6.827 0-9.102-2.276l-31.858-18.204c-13.653 11.378-29.582 20.48-45.511 27.307v38.684c0 6.827-4.551 11.378-11.378 11.378h-81.92c-6.827 0-11.378-4.551-11.378-11.378v-38.684c-18.204-6.827-34.133-15.929-47.787-27.307l-34.133 18.204c-6.827 2.276-13.653 0-15.929-4.551l-40.96-70.542c-2.276-2.276-2.276-6.827-2.276-9.102s2.276-4.551 4.551-6.827l31.858-18.204c-2.276-9.102-2.276-18.204-2.276-27.307s0-18.204 2.276-27.307l-34.133-18.204c-2.276-2.276-4.551-4.551-4.551-6.827s0-6.827 2.276-9.102l40.96-68.267c4.551-6.827 11.378-6.827 15.929-4.551l34.133 18.204c13.653-11.378 29.582-20.48 47.787-27.307v-38.684c0-6.827 4.551-11.378 11.378-11.378h81.92c6.827 0 11.378 6.827 11.378 13.653v38.684c15.929 6.827 31.858 15.929 45.511 27.307l31.858-18.204c2.276-2.276 6.827-2.276 9.102-2.276s4.551 2.276 6.827 4.551l40.96 68.267c2.276 6.827 0 13.653-4.551 15.929l-34.133 18.204c2.276 9.102 2.276 18.204 2.276 27.307s0 18.204-2.276 27.307l38.684 20.48c2.276 2.276 4.551 4.551 4.551 6.827zM640.569 243.996c-4.551-4.551-6.827-9.102-4.551-13.653 2.276-9.102 4.551-20.48 4.551-29.582s-2.276-20.48-4.551-29.582c-2.276-4.551 0-9.102 4.551-13.653l29.582-18.204-29.582-50.062-29.582 18.204c-4.551 2.276-9.102 2.276-13.653-2.276-13.653-13.653-31.858-22.756-50.062-29.582-6.827-2.276-9.102-6.827-9.102-11.378v-34.133h-54.613v34.133c0 4.551-4.551 9.102-9.102 11.378-22.756 6.827-40.96 15.929-54.613 29.582-4.551 4.551-9.102 4.551-13.653 2.276l-31.858-18.204-29.582 50.062 29.582 18.204c4.551 4.551 6.827 9.102 4.551 13.653-2.276 9.102-4.551 20.48-4.551 29.582s2.276 18.204 4.551 29.582c2.276 6.827 0 11.378-4.551 13.653l-29.582 18.204 29.582 50.062 31.858-18.204c4.551-2.276 9.102-2.276 13.653 2.276 13.653 11.378 34.133 22.756 54.613 29.582 6.827 2.276 9.102 6.827 9.102 11.378v34.133h56.889v-34.133c0-4.551 4.551-9.102 9.102-11.378 18.204-4.551 36.409-15.929 50.062-29.582 4.551-4.551 9.102-4.551 13.653-2.276l27.307 18.204 29.582-50.062-29.582-18.204z" />
<glyph unicode="&#xe912;" glyph-name="inspection-cars" d="M998.969 24.747l-152.462 152.462c27.307 31.858 45.511 75.093 45.511 120.604 0 100.124-81.92 182.044-182.044 182.044s-182.044-81.92-182.044-182.044 81.92-182.044 182.044-182.044c45.511 0 88.747 18.204 120.604 45.511l152.462-152.462c2.276-2.276 4.551-2.276 9.102-2.276s6.827 0 9.102 2.276c0 2.276 0 11.378-2.276 15.929zM550.684 295.538c0 88.747 70.542 159.289 159.289 159.289s159.289-70.542 159.289-159.289-70.542-159.289-159.289-159.289-159.289 70.542-159.289 159.289zM471.040 388.836h-418.702v65.991h193.422c6.827 0 11.378 4.551 11.378 11.378s-4.551 11.378-11.378 11.378h-193.422v75.093l84.196 84.196h669.013l81.92-84.196v-150.187c0-6.827 4.551-11.378 11.378-11.378s11.378 4.551 11.378 11.378v154.738c0 2.276-2.276 6.827-2.276 6.827l-88.747 91.022-91.022 223.004c-2.276 4.551-6.827 6.827-11.378 6.827h-493.796c-4.551 0-9.102-2.276-11.378-6.827l-91.022-223.004-88.747-88.747c-2.276-2.276-2.276-4.551-2.276-9.102v-179.769c0-6.827 4.551-11.378 11.378-11.378h34.133v-79.644c0-6.827 4.551-11.378 11.378-11.378h136.533c6.827 0 11.378 4.551 11.378 11.378v79.644h236.658c6.827 0 11.378 4.551 11.378 11.378s-4.551 11.378-11.378 11.378zM229.831 862.151h480.142l81.92-202.524h-643.982l81.92 202.524zM211.627 297.813h-113.778v68.267h113.778v-68.267z" />
<glyph unicode="&#xe913;" glyph-name="start-ins" d="M750.933 632.32c-2.276 0-6.827 2.276-9.102 2.276l-47.787 47.787-47.787-47.787c-2.276-2.276-9.102-4.551-11.378-2.276-4.551 2.276-6.827 6.827-6.827 11.378v170.667c0 6.827 4.551 11.378 11.378 11.378s11.378-4.551 11.378-11.378v-143.36l36.409 36.409c4.551 4.551 11.378 4.551 15.929 0l36.409-36.409v143.36c0 6.827 4.551 11.378 11.378 11.378s11.378-4.551 11.378-11.378v-170.667c0-4.551-2.276-9.102-6.827-11.378-2.276 0-4.551 0-4.551 0zM958.009-32.142h-892.018c-18.204 0-34.133 15.929-34.133 34.133v892.018c0 18.204 15.929 34.133 34.133 34.133h889.742c18.204 0 34.133-15.929 34.133-34.133v-889.742c2.276-20.48-13.653-36.409-31.858-36.409zM65.991 905.387c-6.827 0-11.378-4.551-11.378-11.378v-889.742c0-6.827 4.551-11.378 11.378-11.378h889.742c6.827 0 11.378 4.551 11.378 11.378v889.742c0 6.827-4.551 11.378-11.378 11.378h-889.742zM869.262 56.604h-714.524c-18.204 0-34.133 15.929-34.133 34.133v714.524c0 18.204 15.929 34.133 34.133 34.133h714.524c18.204 0 34.133-15.929 34.133-34.133v-714.524c0-18.204-15.929-34.133-34.133-34.133zM154.738 816.64c-6.827 0-11.378-4.551-11.378-11.378v-714.524c0-6.827 4.551-11.378 11.378-11.378h714.524c6.827 0 11.378 4.551 11.378 11.378v714.524c0 6.827-4.551 11.378-11.378 11.378h-714.524z" />
<glyph unicode="&#xe914;" glyph-name="file-text-o" d="M869.262 682.382l-245.76 245.76c0 0-2.276 0-4.551 0s-2.276 2.276-4.551 2.276h-450.56c-6.827 0-11.378-4.551-11.378-11.378v-942.080c0-6.827 4.551-11.378 11.378-11.378h696.32c6.827 0 11.378 6.827 11.378 11.378v696.32c0 4.551 0 6.827-2.276 9.102zM625.778 891.733l207.076-207.076h-207.076v207.076zM175.218-11.662v919.324h427.804v-234.382c0-6.827 4.551-11.378 11.378-11.378h234.382v-673.564h-673.564zM327.68 620.942h184.32c6.827 0 11.378 4.551 11.378 11.378s-4.551 11.378-11.378 11.378h-184.32c-6.827 0-11.378-4.551-11.378-11.378s4.551-11.378 11.378-11.378zM696.32 520.818h-368.64c-6.827 0-11.378-4.551-11.378-11.378s4.551-11.378 11.378-11.378h368.64c6.827 0 11.378 4.551 11.378 11.378s-4.551 11.378-11.378 11.378zM696.32 397.938h-368.64c-6.827 0-11.378-4.551-11.378-11.378s4.551-11.378 11.378-11.378h368.64c6.827 0 11.378 4.551 11.378 11.378s-4.551 11.378-11.378 11.378zM696.32 275.058h-368.64c-6.827 0-11.378-4.551-11.378-11.378s4.551-11.378 11.378-11.378h368.64c6.827 0 11.378 4.551 11.378 11.378s-4.551 11.378-11.378 11.378zM696.32 152.178h-368.64c-6.827 0-11.378-4.551-11.378-11.378s4.551-11.378 11.378-11.378h368.64c6.827 0 11.378 4.551 11.378 11.378s-4.551 11.378-11.378 11.378z" />
<glyph unicode="&#xe915;" glyph-name="download" d="M839.68-13.938h-655.36c-75.093 0-136.533 61.44-136.533 136.533v77.369c0 11.378 9.102 20.48 20.48 20.48s20.48-9.102 20.48-20.48v-77.369c0-52.338 43.236-95.573 95.573-95.573h655.36c52.338 0 95.573 43.236 95.573 95.573v77.369c0 11.378 9.102 20.48 20.48 20.48s20.48-9.102 20.48-20.48v-77.369c-2.276-77.369-61.44-136.533-136.533-136.533zM512 181.76c-11.378 0-20.48 9.102-20.48 20.48v689.493c0 11.378 9.102 20.48 20.48 20.48s20.48-9.102 20.48-20.48v-689.493c0-11.378-9.102-20.48-20.48-20.48zM512 181.76c-4.551 0-11.378 2.276-13.653 6.827l-282.169 282.169c-6.827 6.827-6.827 20.48 0 29.582 6.827 6.827 20.48 6.827 29.582 0l268.516-268.516 268.516 268.516c6.827 6.827 20.48 6.827 29.582 0 6.827-6.827 6.827-20.48 0-29.582l-286.72-282.169c-2.276-4.551-9.102-6.827-13.653-6.827z" />
<glyph unicode="&#xe916;" glyph-name="times" d="M1024.182 47.889l-398.7 398.7 398.7 398.677-112.071 112.071-398.7-398.7-398.677 398.7-112.071-112.071 398.7-398.677-398.7-398.7 112.071-112.071 398.677 398.7 398.7-398.7z" />
<glyph unicode="&#xe91c;" glyph-name="check" d="M337.419 13.21l-334.188 334.165 105.062 105.085 229.126-229.126 578.287 578.264 105.085-105.062-683.372-683.327z" />
<glyph unicode="&#xe91d;" glyph-name="plus" d="M569.048 505.481v454.519h-113.664v-454.519h-454.474l0.046-113.573h454.428v-454.451h113.664v454.451h454.406v113.573z" />
<glyph unicode="&#xe91e;" glyph-name="arrow-up" d="M1022.976 243.154c0 9.626-3.368 19.274-10.263 27.056l-470.084 531.41c-7.76 8.761-18.91 13.79-30.629 13.79s-22.847-5.029-30.629-13.79l-470.084-531.41c-14.996-16.953-13.403-42.758 3.527-57.708 16.907-14.973 42.758-13.38 57.708 3.55l439.478 496.799 439.478-496.777c14.95-16.93 40.801-18.523 57.708-3.55 9.125 8.055 13.79 19.297 13.79 30.629z" />
<glyph unicode="&#xe91f;" glyph-name="arrow-left" d="M729.448 0.99c7.554 0 15.071 3.138 20.508 9.232 9.998 11.349 8.977 28.609-2.335 38.644l-451.243 399.134 451.207 399.134c11.349 9.998 12.37 27.295 2.335 38.644s-27.295 12.37-38.644 2.335l-474.378-419.642c-5.875-5.182-9.232-12.662-9.232-20.508s3.357-15.29 9.232-20.508l474.378-419.642c5.255-4.561 11.713-6.824 18.172-6.824z" />
<glyph unicode="&#xe920;" glyph-name="arrow-right" d="M308.966-15.942c-7.554 0-15.071 3.138-20.508 9.232-9.998 11.349-8.977 28.609 2.335 38.644l451.207 399.134-451.17 399.134c-11.349 10.035-12.37 27.295-2.372 38.644 10.035 11.349 27.295 12.37 38.644 2.335l474.378-419.642c5.875-5.182 9.232-12.662 9.232-20.508s-3.357-15.29-9.232-20.508l-474.378-419.642c-5.218-4.561-11.677-6.824-18.136-6.824z" />
<glyph unicode="&#xe921;" glyph-name="arrow-down" d="M64.99 665.959c0 7.554 3.138 15.071 9.232 20.508 11.349 9.998 28.609 8.977 38.644-2.372l399.134-451.207 399.171 451.207c9.998 11.349 27.295 12.37 38.644 2.335s12.37-27.295 2.335-38.644l-419.642-474.378c-5.182-5.875-12.662-9.232-20.508-9.232s-15.29 3.357-20.508 9.232l-419.642 474.378c-4.561 5.255-6.86 11.713-6.86 18.172z" />
</font>
</defs>
</svg>
